M48
;GenerationSoftware,Autodesk,EAGLE,9.6.0*%
;CreationDate,2021-11-14T13:28:36Z*%
FMAT,2
ICI,OFF
METRIC,TZ,000.000
T5C0.350
T4C0.700
T3C0.813
T2C1.016
T1C5.000
%
G90
M71
T1
X34544Y60706
T2
X6350Y8890
X3810Y8890
X3810Y11430
X6350Y11430
X8890Y11430
X11430Y11430
X13970Y11430
X16510Y11430
X19050Y11430
X21590Y11430
X24130Y11430
X26670Y11430
X29210Y11430
X31750Y11430
X34290Y11430
X36830Y11430
X39370Y11430
X41910Y11430
X44450Y11430
X46990Y11430
X64770Y11430
X49530Y11430
X52070Y11430
X64770Y8890
X62230Y8890
X59690Y8890
X57150Y8890
X54610Y8890
X54610Y11430
X57150Y11430
X59690Y11430
X62230Y11430
X20828Y48768
X20828Y51308
X36830Y8890
X52070Y8890
X49530Y8890
X46990Y8890
X44450Y8890
X41910Y8890
X39370Y8890
X20828Y46228
X34290Y8890
X31750Y8890
X29210Y8890
X26670Y8890
X24130Y8890
X21590Y8890
X19050Y8890
X16510Y8890
X13970Y8890
X11430Y8890
X8890Y8890
T3
X55880Y42418
X53340Y42418
X55880Y44958
X53340Y44958
X55880Y47498
X53340Y47498
X55880Y50038
X53340Y50038
X55880Y52578
X53340Y55118
X53340Y52578
X50800Y55118
X48260Y55118
X48260Y52578
X45720Y55118
X45720Y52578
X6350Y57658
X6350Y55118
X6350Y47498
X6350Y44958
X6350Y52578
X6350Y50038
X6350Y42418
X13970Y42418
X13970Y44958
X13970Y47498
X13970Y50038
X13970Y52578
X13970Y55118
X13970Y57658
X50800Y52578
X53340Y29718
X43180Y55118
X43180Y52578
X40640Y55118
X40640Y52578
X38100Y55118
X38100Y52578
X35560Y55118
X35560Y52578
X33020Y55118
X30480Y52578
X33020Y52578
X30480Y50038
X33020Y50038
X30480Y47498
X33020Y47498
X30480Y44958
X33020Y44958
X30480Y42418
X33020Y42418
X30480Y39878
X33020Y39878
X30480Y37338
X33020Y37338
X30480Y34798
X33020Y34798
X30480Y32258
X33020Y29718
X33020Y32258
X35560Y29718
X35560Y32258
X38100Y29718
X38100Y32258
X40640Y29718
X40640Y32258
X43180Y29718
X43180Y32258
X45720Y29718
X45720Y32258
X48260Y29718
X48260Y32258
X50800Y29718
X50800Y32258
X55880Y32258
X53340Y32258
X55880Y34798
X53340Y34798
X55880Y37338
X53340Y37338
X55880Y39878
X53340Y39878
T4
X25400Y6858
X22606Y6858
T5
X58166Y29718
X33782Y7366
X48006Y33782
X6350Y33528
X8890Y34798
X11430Y36068
X13970Y37338
X32766Y4318
X52324Y14224
X49022Y33274
X49784Y25146
X54864Y25146
X46990Y35814
X49022Y25908
X54102Y25908
X46736Y34798
X45212Y36322
X43688Y37338
X36830Y24892
X27940Y3810
X30480Y5080
X20320Y5588
X34290Y13716
X48514Y51308
X44704Y50800
X44196Y50038
X43180Y48768
X42672Y47498
X41656Y46482
X25908Y28448
X39624Y43688
X40640Y44958
X42164Y38608
M30