G04 EAGLE Gerber RS-274X export*
G75*
%MOMM*%
%FSLAX34Y34*%
%LPD*%
%INTop Copper*%
%IPPOS*%
%AMOC8*
5,1,8,0,0,1.08239X$1,22.5*%
G01*
%ADD10P,1.649562X8X22.500000*%
%ADD11C,1.219200*%
%ADD12P,1.319650X8X22.500000*%
%ADD13R,1.400000X1.600000*%
%ADD14R,1.500000X1.300000*%
%ADD15R,1.300000X1.500000*%
%ADD16R,1.500000X1.600000*%
%ADD17C,1.219200*%
%ADD18C,1.524000*%
%ADD19C,1.050000*%
%ADD20C,0.152400*%
%ADD21C,0.304800*%
%ADD22C,0.812800*%
%ADD23C,0.525000*%
%ADD24C,0.254000*%

G36*
X277243Y53215D02*
X277243Y53215D01*
X277245Y53214D01*
X277288Y53234D01*
X277332Y53252D01*
X277332Y53254D01*
X277334Y53255D01*
X277367Y53340D01*
X277367Y447882D01*
X278595Y449110D01*
X292570Y463085D01*
X293798Y464313D01*
X314066Y464313D01*
X314069Y464314D01*
X314072Y464313D01*
X314155Y464350D01*
X317970Y468165D01*
X317972Y468168D01*
X317974Y468169D01*
X318007Y468254D01*
X318007Y491062D01*
X323464Y496519D01*
X323465Y496521D01*
X323467Y496522D01*
X323484Y496567D01*
X323501Y496610D01*
X323500Y496612D01*
X323501Y496614D01*
X323464Y496698D01*
X322833Y497329D01*
X322833Y503431D01*
X327149Y507747D01*
X333251Y507747D01*
X337567Y503431D01*
X337567Y497329D01*
X333251Y493013D01*
X327149Y493013D01*
X326518Y493644D01*
X326516Y493645D01*
X326515Y493647D01*
X326470Y493663D01*
X326426Y493681D01*
X326424Y493680D01*
X326422Y493681D01*
X326339Y493644D01*
X322110Y489415D01*
X322108Y489412D01*
X322106Y489411D01*
X322073Y489326D01*
X322073Y466518D01*
X315802Y460247D01*
X295534Y460247D01*
X295531Y460246D01*
X295528Y460247D01*
X295445Y460210D01*
X281470Y446235D01*
X281468Y446232D01*
X281466Y446231D01*
X281433Y446146D01*
X281433Y53340D01*
X281434Y53338D01*
X281433Y53336D01*
X281453Y53293D01*
X281471Y53249D01*
X281473Y53249D01*
X281474Y53247D01*
X281559Y53214D01*
X301652Y53214D01*
X301655Y53215D01*
X301658Y53214D01*
X301741Y53251D01*
X302730Y54240D01*
X302732Y54243D01*
X302734Y54244D01*
X302767Y54329D01*
X302767Y298826D01*
X302766Y298829D01*
X302767Y298832D01*
X302730Y298915D01*
X292607Y309038D01*
X292607Y389462D01*
X298064Y394919D01*
X298065Y394921D01*
X298067Y394922D01*
X298084Y394967D01*
X298101Y395010D01*
X298100Y395012D01*
X298101Y395014D01*
X298064Y395098D01*
X297433Y395729D01*
X297433Y401831D01*
X301749Y406147D01*
X307851Y406147D01*
X312167Y401831D01*
X312167Y395729D01*
X307851Y391413D01*
X301749Y391413D01*
X301118Y392044D01*
X301116Y392045D01*
X301115Y392047D01*
X301070Y392063D01*
X301026Y392081D01*
X301024Y392080D01*
X301022Y392081D01*
X300939Y392044D01*
X296710Y387815D01*
X296708Y387812D01*
X296706Y387811D01*
X296673Y387726D01*
X296673Y326972D01*
X296673Y326971D01*
X296673Y326970D01*
X296692Y326926D01*
X296711Y326881D01*
X296712Y326881D01*
X296713Y326880D01*
X296758Y326863D01*
X296803Y326845D01*
X296804Y326846D01*
X296805Y326846D01*
X296888Y326882D01*
X301223Y331217D01*
X304547Y331217D01*
X304547Y322707D01*
X304548Y322705D01*
X304547Y322703D01*
X304567Y322660D01*
X304585Y322616D01*
X304587Y322616D01*
X304588Y322614D01*
X304673Y322581D01*
X304801Y322581D01*
X304801Y322579D01*
X304673Y322579D01*
X304671Y322578D01*
X304669Y322579D01*
X304626Y322559D01*
X304582Y322541D01*
X304582Y322539D01*
X304580Y322538D01*
X304547Y322453D01*
X304547Y313943D01*
X301223Y313943D01*
X296888Y318278D01*
X296887Y318278D01*
X296887Y318279D01*
X296841Y318297D01*
X296797Y318315D01*
X296796Y318314D01*
X296795Y318315D01*
X296751Y318294D01*
X296707Y318275D01*
X296707Y318274D01*
X296706Y318273D01*
X296673Y318188D01*
X296673Y310774D01*
X296674Y310771D01*
X296673Y310768D01*
X296710Y310685D01*
X306833Y300562D01*
X306833Y54329D01*
X306834Y54326D01*
X306833Y54323D01*
X306870Y54240D01*
X307859Y53251D01*
X307862Y53250D01*
X307863Y53247D01*
X307948Y53214D01*
X325501Y53214D01*
X325503Y53215D01*
X325505Y53214D01*
X325548Y53234D01*
X325592Y53252D01*
X325592Y53254D01*
X325594Y53255D01*
X325627Y53340D01*
X325627Y82353D01*
X325627Y82354D01*
X325627Y82355D01*
X325608Y82399D01*
X325589Y82444D01*
X325588Y82444D01*
X325587Y82445D01*
X325542Y82462D01*
X325497Y82479D01*
X325496Y82479D01*
X325495Y82479D01*
X325412Y82442D01*
X321709Y78739D01*
X317753Y78739D01*
X317753Y88773D01*
X317752Y88775D01*
X317753Y88777D01*
X317733Y88820D01*
X317715Y88864D01*
X317713Y88864D01*
X317712Y88866D01*
X317627Y88899D01*
X317499Y88899D01*
X317499Y88901D01*
X317627Y88901D01*
X317629Y88902D01*
X317631Y88901D01*
X317674Y88921D01*
X317718Y88939D01*
X317718Y88941D01*
X317720Y88942D01*
X317753Y89027D01*
X317753Y99061D01*
X321709Y99061D01*
X325412Y95358D01*
X325413Y95357D01*
X325413Y95356D01*
X325459Y95339D01*
X325503Y95321D01*
X325504Y95321D01*
X325505Y95321D01*
X325549Y95341D01*
X325593Y95361D01*
X325593Y95362D01*
X325594Y95362D01*
X325627Y95447D01*
X325627Y109549D01*
X325627Y109550D01*
X325627Y109551D01*
X325608Y109595D01*
X325589Y109640D01*
X325588Y109640D01*
X325587Y109641D01*
X325542Y109658D01*
X325497Y109675D01*
X325496Y109675D01*
X325495Y109675D01*
X325412Y109638D01*
X321183Y105409D01*
X313817Y105409D01*
X308609Y110617D01*
X308609Y117983D01*
X313817Y123191D01*
X321183Y123191D01*
X325412Y118962D01*
X325413Y118961D01*
X325413Y118960D01*
X325459Y118943D01*
X325503Y118925D01*
X325504Y118925D01*
X325505Y118925D01*
X325549Y118945D01*
X325593Y118965D01*
X325593Y118966D01*
X325594Y118966D01*
X325627Y119051D01*
X325627Y275966D01*
X325626Y275969D01*
X325627Y275972D01*
X325590Y276055D01*
X315467Y286178D01*
X315467Y386922D01*
X323464Y394919D01*
X323465Y394921D01*
X323467Y394922D01*
X323484Y394967D01*
X323501Y395010D01*
X323500Y395012D01*
X323501Y395014D01*
X323464Y395098D01*
X322833Y395729D01*
X322833Y401831D01*
X327149Y406147D01*
X333251Y406147D01*
X337567Y401831D01*
X337567Y395729D01*
X333251Y391413D01*
X327149Y391413D01*
X326518Y392044D01*
X326516Y392045D01*
X326515Y392047D01*
X326470Y392063D01*
X326426Y392081D01*
X326424Y392080D01*
X326422Y392081D01*
X326339Y392044D01*
X319570Y385275D01*
X319568Y385272D01*
X319566Y385271D01*
X319533Y385186D01*
X319533Y287914D01*
X319534Y287911D01*
X319533Y287908D01*
X319570Y287825D01*
X329693Y277702D01*
X329693Y53340D01*
X329694Y53338D01*
X329693Y53336D01*
X329713Y53293D01*
X329731Y53249D01*
X329733Y53249D01*
X329734Y53247D01*
X329819Y53214D01*
X632460Y53214D01*
X632462Y53215D01*
X632465Y53214D01*
X632507Y53234D01*
X632551Y53252D01*
X632552Y53254D01*
X632554Y53256D01*
X632586Y53341D01*
X632343Y109670D01*
X632343Y109671D01*
X632324Y109716D01*
X632305Y109760D01*
X632304Y109761D01*
X632257Y109778D01*
X632213Y109795D01*
X632212Y109795D01*
X632211Y109795D01*
X632128Y109758D01*
X626509Y104139D01*
X622553Y104139D01*
X622553Y114173D01*
X622552Y114175D01*
X622553Y114177D01*
X622533Y114220D01*
X622515Y114264D01*
X622513Y114264D01*
X622512Y114266D01*
X622427Y114299D01*
X622299Y114299D01*
X622299Y114301D01*
X622427Y114301D01*
X622429Y114302D01*
X622431Y114301D01*
X622474Y114321D01*
X622518Y114339D01*
X622518Y114341D01*
X622520Y114342D01*
X622553Y114427D01*
X622553Y124461D01*
X626509Y124461D01*
X632088Y118882D01*
X632089Y118881D01*
X632090Y118880D01*
X632134Y118863D01*
X632179Y118845D01*
X632180Y118845D01*
X632182Y118845D01*
X632225Y118865D01*
X632269Y118885D01*
X632270Y118886D01*
X632271Y118886D01*
X632303Y118971D01*
X630046Y642621D01*
X630046Y642622D01*
X630046Y642624D01*
X630026Y642668D01*
X630007Y642711D01*
X630006Y642712D01*
X630005Y642713D01*
X629920Y642746D01*
X33020Y642746D01*
X33018Y642745D01*
X33015Y642746D01*
X32973Y642726D01*
X32929Y642708D01*
X32928Y642706D01*
X32926Y642705D01*
X32894Y642619D01*
X35089Y133399D01*
X35092Y133392D01*
X35090Y133385D01*
X35111Y133348D01*
X35127Y133309D01*
X35135Y133306D01*
X35138Y133299D01*
X35180Y133289D01*
X35220Y133273D01*
X35226Y133277D01*
X35234Y133275D01*
X35285Y133304D01*
X35309Y133315D01*
X35310Y133318D01*
X35313Y133320D01*
X37421Y135905D01*
X37428Y135930D01*
X37449Y135984D01*
X37449Y146166D01*
X38194Y146911D01*
X53246Y146911D01*
X53991Y146166D01*
X53991Y129114D01*
X53246Y128369D01*
X45103Y128369D01*
X45094Y128365D01*
X45084Y128368D01*
X45040Y128342D01*
X45012Y128331D01*
X45010Y128326D01*
X45005Y128323D01*
X43463Y126432D01*
X43456Y126406D01*
X43435Y126352D01*
X43435Y121591D01*
X43436Y121588D01*
X43435Y121585D01*
X43472Y121502D01*
X46991Y117983D01*
X46991Y110617D01*
X41783Y105409D01*
X35336Y105409D01*
X35334Y105408D01*
X35332Y105409D01*
X35289Y105389D01*
X35245Y105371D01*
X35245Y105369D01*
X35242Y105368D01*
X35210Y105282D01*
X35242Y97916D01*
X35242Y97915D01*
X35242Y97913D01*
X35262Y97869D01*
X35280Y97826D01*
X35282Y97825D01*
X35283Y97824D01*
X35368Y97791D01*
X41783Y97791D01*
X46991Y92583D01*
X46991Y85217D01*
X41783Y80009D01*
X35446Y80009D01*
X35443Y80008D01*
X35441Y80009D01*
X35398Y79989D01*
X35355Y79971D01*
X35354Y79969D01*
X35352Y79968D01*
X35319Y79882D01*
X35434Y53339D01*
X35435Y53338D01*
X35434Y53336D01*
X35454Y53292D01*
X35473Y53249D01*
X35474Y53248D01*
X35475Y53247D01*
X35560Y53214D01*
X200052Y53214D01*
X200053Y53214D01*
X200054Y53214D01*
X200098Y53233D01*
X200143Y53252D01*
X200143Y53253D01*
X200144Y53254D01*
X200161Y53299D01*
X200178Y53344D01*
X200178Y53345D01*
X200178Y53346D01*
X200141Y53429D01*
X199304Y54266D01*
X199304Y57494D01*
X201130Y59320D01*
X201132Y59323D01*
X201134Y59324D01*
X201167Y59409D01*
X201167Y453263D01*
X201166Y453265D01*
X201167Y453267D01*
X201148Y453309D01*
X201129Y453354D01*
X201127Y453354D01*
X201126Y453356D01*
X201041Y453389D01*
X198891Y453389D01*
X195624Y454743D01*
X193123Y457244D01*
X191769Y460511D01*
X191769Y464049D01*
X193123Y467316D01*
X195624Y469817D01*
X198891Y471171D01*
X217669Y471171D01*
X220936Y469817D01*
X223437Y467316D01*
X224791Y464049D01*
X224791Y460511D01*
X223437Y457244D01*
X220936Y454743D01*
X217669Y453389D01*
X205359Y453389D01*
X205357Y453388D01*
X205355Y453389D01*
X205312Y453369D01*
X205268Y453351D01*
X205268Y453349D01*
X205266Y453348D01*
X205233Y453263D01*
X205233Y59409D01*
X205234Y59406D01*
X205233Y59403D01*
X205270Y59320D01*
X207096Y57494D01*
X207096Y54266D01*
X206259Y53429D01*
X206258Y53428D01*
X206257Y53428D01*
X206240Y53382D01*
X206222Y53338D01*
X206222Y53337D01*
X206222Y53336D01*
X206242Y53292D01*
X206262Y53248D01*
X206263Y53248D01*
X206263Y53247D01*
X206348Y53214D01*
X277241Y53214D01*
X277243Y53215D01*
G37*
%LPC*%
G36*
X390017Y80009D02*
X390017Y80009D01*
X384809Y85217D01*
X384809Y92583D01*
X385887Y93660D01*
X385888Y93662D01*
X385890Y93663D01*
X385906Y93707D01*
X385924Y93751D01*
X385923Y93753D01*
X385924Y93755D01*
X385887Y93839D01*
X382735Y96990D01*
X381507Y98218D01*
X381507Y249762D01*
X382735Y250990D01*
X425064Y293319D01*
X425065Y293321D01*
X425067Y293322D01*
X425084Y293367D01*
X425101Y293410D01*
X425100Y293412D01*
X425101Y293414D01*
X425064Y293498D01*
X424433Y294129D01*
X424433Y300231D01*
X425064Y300862D01*
X425065Y300864D01*
X425067Y300865D01*
X425083Y300910D01*
X425101Y300954D01*
X425100Y300956D01*
X425101Y300958D01*
X425064Y301041D01*
X423375Y302730D01*
X422147Y303958D01*
X422147Y311526D01*
X422146Y311529D01*
X422147Y311532D01*
X422110Y311615D01*
X414527Y319198D01*
X414527Y461291D01*
X414526Y461294D01*
X414527Y461297D01*
X414490Y461380D01*
X412664Y463206D01*
X412664Y466434D01*
X414946Y468716D01*
X418174Y468716D01*
X419392Y467498D01*
X419393Y467497D01*
X419393Y467496D01*
X419439Y467479D01*
X419483Y467461D01*
X419484Y467461D01*
X419485Y467461D01*
X419529Y467481D01*
X419573Y467501D01*
X419573Y467502D01*
X419574Y467502D01*
X419607Y467587D01*
X419607Y491866D01*
X419606Y491869D01*
X419607Y491872D01*
X419570Y491955D01*
X394207Y517318D01*
X394207Y541862D01*
X399664Y547319D01*
X399665Y547321D01*
X399667Y547322D01*
X399684Y547367D01*
X399701Y547410D01*
X399700Y547412D01*
X399701Y547414D01*
X399664Y547498D01*
X399033Y548129D01*
X399033Y554231D01*
X403349Y558547D01*
X409451Y558547D01*
X413767Y554231D01*
X413767Y548129D01*
X409451Y543813D01*
X403349Y543813D01*
X402718Y544444D01*
X402716Y544445D01*
X402715Y544447D01*
X402670Y544463D01*
X402626Y544481D01*
X402624Y544480D01*
X402622Y544481D01*
X402539Y544444D01*
X398310Y540215D01*
X398308Y540212D01*
X398306Y540211D01*
X398273Y540126D01*
X398273Y530172D01*
X398273Y530171D01*
X398273Y530170D01*
X398292Y530126D01*
X398311Y530081D01*
X398312Y530081D01*
X398313Y530080D01*
X398358Y530063D01*
X398403Y530045D01*
X398404Y530046D01*
X398405Y530046D01*
X398488Y530082D01*
X402823Y534417D01*
X406147Y534417D01*
X406147Y525907D01*
X406148Y525905D01*
X406147Y525903D01*
X406167Y525860D01*
X406185Y525816D01*
X406187Y525816D01*
X406188Y525814D01*
X406273Y525781D01*
X406401Y525781D01*
X406401Y525779D01*
X406273Y525779D01*
X406271Y525778D01*
X406269Y525779D01*
X406226Y525759D01*
X406182Y525741D01*
X406182Y525739D01*
X406180Y525738D01*
X406147Y525653D01*
X406147Y517143D01*
X402823Y517143D01*
X398488Y521478D01*
X398487Y521478D01*
X398487Y521479D01*
X398441Y521497D01*
X398397Y521515D01*
X398396Y521514D01*
X398395Y521515D01*
X398351Y521494D01*
X398307Y521475D01*
X398307Y521474D01*
X398306Y521473D01*
X398273Y521388D01*
X398273Y519054D01*
X398274Y519051D01*
X398273Y519048D01*
X398310Y518965D01*
X423673Y493602D01*
X423673Y477747D01*
X423673Y477746D01*
X423673Y477745D01*
X423692Y477701D01*
X423711Y477656D01*
X423712Y477656D01*
X423713Y477655D01*
X423758Y477638D01*
X423803Y477621D01*
X423804Y477621D01*
X423805Y477621D01*
X423888Y477658D01*
X425106Y478876D01*
X428334Y478876D01*
X429552Y477658D01*
X429553Y477657D01*
X429553Y477656D01*
X429599Y477639D01*
X429643Y477621D01*
X429644Y477621D01*
X429645Y477621D01*
X429689Y477641D01*
X429733Y477661D01*
X429733Y477662D01*
X429734Y477662D01*
X429767Y477747D01*
X429767Y484151D01*
X429766Y484154D01*
X429767Y484157D01*
X429730Y484240D01*
X427904Y486066D01*
X427904Y489294D01*
X430186Y491576D01*
X433414Y491576D01*
X434632Y490358D01*
X434633Y490357D01*
X434633Y490356D01*
X434679Y490339D01*
X434723Y490321D01*
X434724Y490321D01*
X434725Y490321D01*
X434769Y490341D01*
X434813Y490361D01*
X434813Y490362D01*
X434814Y490362D01*
X434847Y490447D01*
X434847Y518287D01*
X434846Y518289D01*
X434847Y518291D01*
X434828Y518333D01*
X434809Y518378D01*
X434807Y518378D01*
X434806Y518380D01*
X434721Y518413D01*
X428749Y518413D01*
X424433Y522729D01*
X424433Y528831D01*
X428749Y533147D01*
X433954Y533147D01*
X433955Y533147D01*
X433956Y533147D01*
X434000Y533166D01*
X434044Y533185D01*
X434045Y533186D01*
X434046Y533187D01*
X434062Y533232D01*
X434080Y533277D01*
X434079Y533278D01*
X434080Y533279D01*
X434043Y533362D01*
X429767Y537638D01*
X429767Y543964D01*
X429756Y543990D01*
X429755Y544018D01*
X429737Y544035D01*
X429729Y544055D01*
X429708Y544063D01*
X429689Y544081D01*
X427627Y544935D01*
X425555Y547007D01*
X424433Y549715D01*
X424433Y552645D01*
X425555Y555353D01*
X427627Y557425D01*
X430335Y558547D01*
X433265Y558547D01*
X435973Y557425D01*
X438045Y555353D01*
X439167Y552645D01*
X439167Y549715D01*
X438045Y547007D01*
X435973Y544935D01*
X433911Y544081D01*
X433891Y544061D01*
X433866Y544049D01*
X433857Y544026D01*
X433842Y544010D01*
X433842Y543988D01*
X433833Y543964D01*
X433833Y539374D01*
X433834Y539371D01*
X433833Y539368D01*
X433870Y539285D01*
X449618Y523537D01*
X449619Y523537D01*
X449619Y523536D01*
X449665Y523518D01*
X449709Y523500D01*
X449710Y523500D01*
X449711Y523500D01*
X449755Y523520D01*
X449799Y523540D01*
X449799Y523541D01*
X449800Y523541D01*
X449833Y523626D01*
X449833Y528831D01*
X454149Y533147D01*
X460251Y533147D01*
X464567Y528831D01*
X464567Y522729D01*
X460251Y518413D01*
X459359Y518413D01*
X459357Y518412D01*
X459355Y518413D01*
X459312Y518393D01*
X459268Y518375D01*
X459268Y518373D01*
X459266Y518372D01*
X459233Y518287D01*
X459233Y359034D01*
X459234Y359031D01*
X459233Y359028D01*
X459270Y358945D01*
X466302Y351913D01*
X466305Y351911D01*
X466306Y351909D01*
X466391Y351876D01*
X468974Y351876D01*
X471256Y349594D01*
X471256Y346366D01*
X468974Y344084D01*
X466815Y344084D01*
X466814Y344084D01*
X466813Y344084D01*
X466769Y344065D01*
X466725Y344046D01*
X466724Y344045D01*
X466723Y344044D01*
X466707Y343999D01*
X466689Y343954D01*
X466690Y343953D01*
X466689Y343952D01*
X466726Y343869D01*
X474473Y336122D01*
X474473Y320934D01*
X474474Y320931D01*
X474473Y320928D01*
X474510Y320845D01*
X475018Y320337D01*
X475019Y320337D01*
X475019Y320336D01*
X475065Y320318D01*
X475109Y320300D01*
X475110Y320300D01*
X475111Y320300D01*
X475155Y320320D01*
X475199Y320340D01*
X475199Y320341D01*
X475200Y320341D01*
X475233Y320426D01*
X475233Y325631D01*
X479549Y329947D01*
X480441Y329947D01*
X480443Y329948D01*
X480445Y329947D01*
X480488Y329967D01*
X480532Y329985D01*
X480532Y329987D01*
X480534Y329988D01*
X480567Y330073D01*
X480567Y331042D01*
X483070Y333545D01*
X483072Y333548D01*
X483074Y333549D01*
X483107Y333634D01*
X483107Y335053D01*
X483107Y335054D01*
X483107Y335055D01*
X483088Y335099D01*
X483069Y335144D01*
X483068Y335144D01*
X483067Y335145D01*
X483022Y335162D01*
X482977Y335179D01*
X482976Y335179D01*
X482975Y335179D01*
X482892Y335142D01*
X481674Y333924D01*
X478446Y333924D01*
X476164Y336206D01*
X476164Y339434D01*
X477990Y341260D01*
X477992Y341263D01*
X477994Y341264D01*
X478027Y341349D01*
X478027Y354706D01*
X478026Y354709D01*
X478027Y354712D01*
X477990Y354795D01*
X474011Y358774D01*
X474010Y358774D01*
X474010Y358775D01*
X473964Y358793D01*
X473920Y358811D01*
X473919Y358811D01*
X473918Y358811D01*
X473874Y358791D01*
X473830Y358771D01*
X473830Y358770D01*
X473829Y358770D01*
X473796Y358685D01*
X473796Y356526D01*
X471514Y354244D01*
X468286Y354244D01*
X466004Y356526D01*
X466004Y359109D01*
X466003Y359112D01*
X466004Y359115D01*
X465967Y359198D01*
X465327Y359838D01*
X465327Y540126D01*
X465326Y540129D01*
X465327Y540132D01*
X465290Y540215D01*
X461061Y544444D01*
X461059Y544445D01*
X461058Y544447D01*
X461013Y544464D01*
X460970Y544481D01*
X460968Y544480D01*
X460966Y544481D01*
X460882Y544444D01*
X460251Y543813D01*
X454149Y543813D01*
X449833Y548129D01*
X449833Y554231D01*
X454149Y558547D01*
X460251Y558547D01*
X464567Y554231D01*
X464567Y548129D01*
X463936Y547498D01*
X463935Y547496D01*
X463933Y547495D01*
X463916Y547450D01*
X463899Y547406D01*
X463900Y547404D01*
X463899Y547402D01*
X463936Y547319D01*
X468165Y543090D01*
X469393Y541862D01*
X469393Y362162D01*
X469394Y362160D01*
X469393Y362158D01*
X469413Y362115D01*
X469431Y362071D01*
X469433Y362071D01*
X469434Y362069D01*
X469519Y362036D01*
X470445Y362036D01*
X470446Y362036D01*
X470447Y362036D01*
X470491Y362055D01*
X470535Y362074D01*
X470536Y362075D01*
X470537Y362076D01*
X470553Y362121D01*
X470571Y362166D01*
X470570Y362167D01*
X470571Y362168D01*
X470534Y362251D01*
X470407Y362378D01*
X470407Y541862D01*
X471635Y543090D01*
X475864Y547319D01*
X475865Y547321D01*
X475867Y547322D01*
X475884Y547367D01*
X475901Y547410D01*
X475900Y547412D01*
X475901Y547414D01*
X475864Y547498D01*
X475233Y548129D01*
X475233Y554231D01*
X479549Y558547D01*
X485651Y558547D01*
X489967Y554231D01*
X489967Y548129D01*
X485651Y543813D01*
X479549Y543813D01*
X478918Y544444D01*
X478916Y544445D01*
X478915Y544447D01*
X478870Y544463D01*
X478826Y544481D01*
X478824Y544480D01*
X478822Y544481D01*
X478739Y544444D01*
X474510Y540215D01*
X474508Y540212D01*
X474506Y540211D01*
X474473Y540126D01*
X474473Y364114D01*
X474474Y364111D01*
X474473Y364108D01*
X474510Y364025D01*
X482093Y356442D01*
X482093Y341349D01*
X482094Y341346D01*
X482093Y341343D01*
X482130Y341260D01*
X482892Y340498D01*
X482893Y340497D01*
X482893Y340496D01*
X482938Y340479D01*
X482983Y340461D01*
X482984Y340461D01*
X482985Y340461D01*
X483030Y340481D01*
X483073Y340501D01*
X483073Y340502D01*
X483074Y340502D01*
X483107Y340587D01*
X483107Y509551D01*
X483106Y509554D01*
X483107Y509557D01*
X483070Y509640D01*
X481244Y511466D01*
X481244Y514694D01*
X483526Y516976D01*
X486754Y516976D01*
X487972Y515758D01*
X487973Y515757D01*
X487973Y515756D01*
X488019Y515739D01*
X488063Y515721D01*
X488064Y515721D01*
X488065Y515721D01*
X488109Y515741D01*
X488153Y515761D01*
X488153Y515762D01*
X488154Y515762D01*
X488187Y515847D01*
X488187Y517266D01*
X488186Y517269D01*
X488187Y517272D01*
X488150Y517355D01*
X486461Y519044D01*
X486459Y519045D01*
X486458Y519047D01*
X486413Y519064D01*
X486370Y519081D01*
X486368Y519080D01*
X486366Y519081D01*
X486282Y519044D01*
X485651Y518413D01*
X479549Y518413D01*
X475233Y522729D01*
X475233Y528831D01*
X479549Y533147D01*
X485651Y533147D01*
X489967Y528831D01*
X489967Y522729D01*
X489336Y522098D01*
X489335Y522096D01*
X489333Y522095D01*
X489317Y522050D01*
X489299Y522006D01*
X489300Y522004D01*
X489299Y522002D01*
X489336Y521919D01*
X491025Y520230D01*
X492253Y519002D01*
X492253Y336269D01*
X492254Y336266D01*
X492253Y336263D01*
X492290Y336180D01*
X494116Y334354D01*
X494116Y331126D01*
X491834Y328844D01*
X488606Y328844D01*
X486452Y330999D01*
X486450Y330999D01*
X486449Y331001D01*
X486404Y331018D01*
X486361Y331036D01*
X486359Y331035D01*
X486357Y331035D01*
X486273Y330999D01*
X485945Y330670D01*
X485437Y330162D01*
X485437Y330161D01*
X485436Y330161D01*
X485418Y330116D01*
X485400Y330071D01*
X485400Y330070D01*
X485400Y330069D01*
X485421Y330024D01*
X485440Y329981D01*
X485441Y329981D01*
X485441Y329980D01*
X485526Y329947D01*
X485651Y329947D01*
X489967Y325631D01*
X489967Y319529D01*
X489336Y318898D01*
X489335Y318896D01*
X489333Y318895D01*
X489317Y318850D01*
X489299Y318806D01*
X489300Y318804D01*
X489299Y318802D01*
X489336Y318719D01*
X498645Y309410D01*
X499873Y308182D01*
X499873Y301572D01*
X499873Y301571D01*
X499873Y301570D01*
X499892Y301526D01*
X499911Y301481D01*
X499912Y301481D01*
X499913Y301480D01*
X499958Y301463D01*
X500003Y301445D01*
X500004Y301446D01*
X500005Y301446D01*
X500088Y301482D01*
X504423Y305817D01*
X507747Y305817D01*
X507747Y297307D01*
X507748Y297305D01*
X507747Y297303D01*
X507767Y297260D01*
X507785Y297216D01*
X507787Y297216D01*
X507788Y297214D01*
X507873Y297181D01*
X508127Y297181D01*
X508129Y297182D01*
X508131Y297181D01*
X508174Y297201D01*
X508218Y297219D01*
X508218Y297221D01*
X508220Y297222D01*
X508253Y297307D01*
X508253Y305817D01*
X511577Y305817D01*
X515912Y301482D01*
X515913Y301482D01*
X515913Y301481D01*
X515959Y301463D01*
X516003Y301445D01*
X516004Y301446D01*
X516005Y301445D01*
X516049Y301466D01*
X516093Y301485D01*
X516093Y301486D01*
X516094Y301487D01*
X516127Y301572D01*
X516127Y311526D01*
X516126Y311529D01*
X516127Y311532D01*
X516090Y311615D01*
X511861Y315844D01*
X511859Y315845D01*
X511858Y315847D01*
X511813Y315864D01*
X511770Y315881D01*
X511768Y315880D01*
X511766Y315881D01*
X511682Y315844D01*
X511051Y315213D01*
X504949Y315213D01*
X500633Y319529D01*
X500633Y325631D01*
X504949Y329947D01*
X505841Y329947D01*
X505843Y329948D01*
X505845Y329947D01*
X505888Y329967D01*
X505932Y329985D01*
X505932Y329987D01*
X505934Y329988D01*
X505967Y330073D01*
X505967Y518287D01*
X505966Y518289D01*
X505967Y518291D01*
X505948Y518333D01*
X505929Y518378D01*
X505927Y518378D01*
X505926Y518380D01*
X505841Y518413D01*
X504949Y518413D01*
X500633Y522729D01*
X500633Y528831D01*
X504949Y533147D01*
X511051Y533147D01*
X515367Y528831D01*
X515367Y522729D01*
X511051Y518413D01*
X510159Y518413D01*
X510157Y518412D01*
X510155Y518413D01*
X510112Y518393D01*
X510068Y518375D01*
X510068Y518373D01*
X510066Y518372D01*
X510033Y518287D01*
X510033Y330073D01*
X510034Y330071D01*
X510033Y330069D01*
X510053Y330026D01*
X510071Y329982D01*
X510073Y329982D01*
X510074Y329980D01*
X510159Y329947D01*
X511051Y329947D01*
X515367Y325631D01*
X515367Y319529D01*
X514736Y318898D01*
X514735Y318896D01*
X514733Y318895D01*
X514717Y318850D01*
X514699Y318806D01*
X514700Y318804D01*
X514699Y318802D01*
X514736Y318719D01*
X518965Y314490D01*
X520193Y313262D01*
X520193Y145007D01*
X520193Y145006D01*
X520193Y145005D01*
X520212Y144961D01*
X520231Y144916D01*
X520232Y144916D01*
X520233Y144915D01*
X520278Y144898D01*
X520323Y144881D01*
X520324Y144881D01*
X520325Y144881D01*
X520408Y144918D01*
X521170Y145680D01*
X521172Y145683D01*
X521174Y145684D01*
X521207Y145769D01*
X521207Y313262D01*
X522435Y314490D01*
X526664Y318719D01*
X526665Y318721D01*
X526667Y318722D01*
X526684Y318767D01*
X526701Y318810D01*
X526700Y318812D01*
X526701Y318814D01*
X526664Y318898D01*
X526033Y319529D01*
X526033Y325631D01*
X530349Y329947D01*
X536451Y329947D01*
X540767Y325631D01*
X540767Y319529D01*
X536451Y315213D01*
X530349Y315213D01*
X529718Y315844D01*
X529716Y315845D01*
X529715Y315847D01*
X529670Y315863D01*
X529626Y315881D01*
X529624Y315880D01*
X529622Y315881D01*
X529539Y315844D01*
X525310Y311615D01*
X525308Y311612D01*
X525306Y311611D01*
X525273Y311526D01*
X525273Y145769D01*
X525274Y145766D01*
X525273Y145763D01*
X525310Y145680D01*
X527136Y143854D01*
X527136Y140626D01*
X524854Y138344D01*
X522695Y138344D01*
X522694Y138344D01*
X522693Y138344D01*
X522649Y138325D01*
X522605Y138306D01*
X522604Y138305D01*
X522603Y138304D01*
X522587Y138259D01*
X522569Y138214D01*
X522570Y138213D01*
X522569Y138212D01*
X522606Y138129D01*
X537973Y122762D01*
X537973Y119051D01*
X537973Y119050D01*
X537973Y119049D01*
X537992Y119005D01*
X538011Y118960D01*
X538012Y118960D01*
X538013Y118959D01*
X538058Y118942D01*
X538103Y118925D01*
X538104Y118925D01*
X538105Y118925D01*
X538188Y118962D01*
X542417Y123191D01*
X549783Y123191D01*
X550860Y122113D01*
X550862Y122112D01*
X550863Y122110D01*
X550908Y122094D01*
X550951Y122076D01*
X550953Y122077D01*
X550955Y122076D01*
X551039Y122113D01*
X556730Y127805D01*
X556732Y127808D01*
X556734Y127809D01*
X556767Y127894D01*
X556767Y315087D01*
X556766Y315089D01*
X556767Y315091D01*
X556747Y315134D01*
X556729Y315178D01*
X556727Y315178D01*
X556726Y315180D01*
X556641Y315213D01*
X555749Y315213D01*
X551433Y319529D01*
X551433Y325631D01*
X555749Y329947D01*
X561851Y329947D01*
X566167Y325631D01*
X566167Y319529D01*
X561851Y315213D01*
X560959Y315213D01*
X560957Y315212D01*
X560955Y315213D01*
X560912Y315193D01*
X560868Y315175D01*
X560868Y315173D01*
X560866Y315172D01*
X560833Y315087D01*
X560833Y126158D01*
X553913Y119239D01*
X553912Y119237D01*
X553910Y119236D01*
X553894Y119191D01*
X553876Y119147D01*
X553877Y119145D01*
X553876Y119143D01*
X553913Y119060D01*
X554991Y117983D01*
X554991Y110617D01*
X549783Y105409D01*
X542417Y105409D01*
X538188Y109638D01*
X538187Y109639D01*
X538187Y109640D01*
X538141Y109657D01*
X538097Y109675D01*
X538096Y109675D01*
X538095Y109675D01*
X538051Y109655D01*
X538007Y109635D01*
X538007Y109634D01*
X538006Y109634D01*
X537973Y109549D01*
X537973Y99954D01*
X537974Y99951D01*
X537973Y99948D01*
X538010Y99865D01*
X541161Y96713D01*
X541163Y96712D01*
X541164Y96710D01*
X541209Y96694D01*
X541253Y96676D01*
X541255Y96677D01*
X541257Y96676D01*
X541340Y96713D01*
X542417Y97791D01*
X549783Y97791D01*
X554991Y92583D01*
X554991Y85217D01*
X549783Y80009D01*
X542417Y80009D01*
X537209Y85217D01*
X537209Y92583D01*
X538287Y93660D01*
X538288Y93662D01*
X538290Y93663D01*
X538306Y93707D01*
X538324Y93751D01*
X538323Y93753D01*
X538324Y93755D01*
X538287Y93839D01*
X533907Y98218D01*
X533907Y121026D01*
X533906Y121029D01*
X533907Y121032D01*
X533870Y121115D01*
X516127Y138858D01*
X516127Y292788D01*
X516127Y292789D01*
X516127Y292790D01*
X516108Y292834D01*
X516089Y292879D01*
X516088Y292879D01*
X516087Y292880D01*
X516042Y292897D01*
X515997Y292915D01*
X515996Y292914D01*
X515995Y292914D01*
X515912Y292878D01*
X511577Y288543D01*
X508253Y288543D01*
X508253Y297053D01*
X508252Y297055D01*
X508253Y297057D01*
X508233Y297100D01*
X508215Y297144D01*
X508213Y297144D01*
X508212Y297146D01*
X508127Y297179D01*
X507873Y297179D01*
X507871Y297178D01*
X507869Y297179D01*
X507826Y297159D01*
X507782Y297141D01*
X507782Y297139D01*
X507780Y297138D01*
X507747Y297053D01*
X507747Y288543D01*
X504423Y288543D01*
X500088Y292878D01*
X500087Y292878D01*
X500087Y292879D01*
X500041Y292897D01*
X499997Y292915D01*
X499996Y292914D01*
X499995Y292915D01*
X499951Y292894D01*
X499907Y292875D01*
X499907Y292874D01*
X499906Y292873D01*
X499873Y292788D01*
X499873Y280294D01*
X499874Y280291D01*
X499873Y280288D01*
X499910Y280205D01*
X510033Y270082D01*
X510033Y102494D01*
X510034Y102491D01*
X510033Y102488D01*
X510070Y102405D01*
X515761Y96713D01*
X515763Y96712D01*
X515764Y96710D01*
X515809Y96694D01*
X515853Y96676D01*
X515855Y96677D01*
X515857Y96676D01*
X515940Y96713D01*
X517017Y97791D01*
X524383Y97791D01*
X529591Y92583D01*
X529591Y85217D01*
X524383Y80009D01*
X517017Y80009D01*
X511809Y85217D01*
X511809Y92583D01*
X512887Y93660D01*
X512888Y93662D01*
X512890Y93663D01*
X512906Y93707D01*
X512924Y93751D01*
X512923Y93753D01*
X512924Y93755D01*
X512887Y93839D01*
X505967Y100758D01*
X505967Y268346D01*
X505967Y268347D01*
X505967Y268348D01*
X505966Y268350D01*
X505967Y268352D01*
X505930Y268435D01*
X495807Y278558D01*
X495807Y306446D01*
X495806Y306449D01*
X495807Y306452D01*
X495770Y306535D01*
X486461Y315844D01*
X486459Y315845D01*
X486458Y315847D01*
X486413Y315864D01*
X486370Y315881D01*
X486368Y315880D01*
X486366Y315881D01*
X486282Y315844D01*
X485651Y315213D01*
X480446Y315213D01*
X480445Y315213D01*
X480444Y315213D01*
X480400Y315194D01*
X480356Y315175D01*
X480355Y315174D01*
X480354Y315173D01*
X480338Y315128D01*
X480320Y315083D01*
X480321Y315082D01*
X480320Y315081D01*
X480357Y314998D01*
X483405Y311950D01*
X483408Y311948D01*
X483409Y311946D01*
X483494Y311913D01*
X488522Y311913D01*
X494793Y305642D01*
X494793Y273478D01*
X493565Y272250D01*
X446570Y225255D01*
X446569Y225254D01*
X446568Y225252D01*
X446566Y225251D01*
X446533Y225166D01*
X446533Y123317D01*
X446534Y123315D01*
X446533Y123313D01*
X446553Y123270D01*
X446571Y123226D01*
X446573Y123226D01*
X446574Y123224D01*
X446659Y123191D01*
X448183Y123191D01*
X453391Y117983D01*
X453391Y110617D01*
X449162Y106388D01*
X449161Y106387D01*
X449160Y106387D01*
X449143Y106341D01*
X449125Y106297D01*
X449125Y106296D01*
X449125Y106295D01*
X449145Y106251D01*
X449165Y106207D01*
X449166Y106207D01*
X449166Y106206D01*
X449251Y106173D01*
X465149Y106173D01*
X465150Y106173D01*
X465151Y106173D01*
X465195Y106192D01*
X465240Y106211D01*
X465240Y106212D01*
X465241Y106213D01*
X465258Y106258D01*
X465275Y106303D01*
X465275Y106304D01*
X465275Y106305D01*
X465238Y106388D01*
X461009Y110617D01*
X461009Y117983D01*
X466217Y123191D01*
X467741Y123191D01*
X467743Y123192D01*
X467745Y123191D01*
X467788Y123211D01*
X467832Y123229D01*
X467832Y123231D01*
X467834Y123232D01*
X467867Y123317D01*
X467867Y239602D01*
X486287Y258022D01*
X486289Y258025D01*
X486291Y258026D01*
X486324Y258111D01*
X486324Y260694D01*
X488606Y262976D01*
X491834Y262976D01*
X494116Y260694D01*
X494116Y257466D01*
X491834Y255184D01*
X489251Y255184D01*
X489248Y255183D01*
X489245Y255184D01*
X489162Y255147D01*
X471970Y237955D01*
X471968Y237952D01*
X471966Y237951D01*
X471933Y237866D01*
X471933Y123317D01*
X471934Y123315D01*
X471933Y123313D01*
X471953Y123270D01*
X471971Y123226D01*
X471973Y123226D01*
X471974Y123224D01*
X472059Y123191D01*
X473583Y123191D01*
X478791Y117983D01*
X478791Y110617D01*
X474562Y106388D01*
X474561Y106387D01*
X474560Y106387D01*
X474543Y106341D01*
X474525Y106297D01*
X474525Y106296D01*
X474525Y106295D01*
X474545Y106251D01*
X474565Y106207D01*
X474566Y106207D01*
X474566Y106206D01*
X474651Y106173D01*
X483442Y106173D01*
X491787Y97828D01*
X491790Y97826D01*
X491791Y97824D01*
X491876Y97791D01*
X498983Y97791D01*
X504191Y92583D01*
X504191Y85217D01*
X498983Y80009D01*
X491617Y80009D01*
X486409Y85217D01*
X486409Y92583D01*
X488757Y94930D01*
X488758Y94932D01*
X488760Y94933D01*
X488776Y94978D01*
X488794Y95021D01*
X488793Y95023D01*
X488794Y95025D01*
X488757Y95109D01*
X481795Y102070D01*
X481792Y102072D01*
X481791Y102074D01*
X481706Y102107D01*
X439552Y102107D01*
X439551Y102107D01*
X439550Y102107D01*
X439506Y102088D01*
X439462Y102069D01*
X439461Y102068D01*
X439460Y102067D01*
X439444Y102022D01*
X439426Y101977D01*
X439427Y101976D01*
X439426Y101975D01*
X439463Y101892D01*
X440225Y101130D01*
X440228Y101128D01*
X440229Y101126D01*
X440314Y101093D01*
X460582Y101093D01*
X461810Y99865D01*
X464961Y96713D01*
X464963Y96712D01*
X464964Y96710D01*
X465009Y96694D01*
X465053Y96676D01*
X465055Y96677D01*
X465057Y96676D01*
X465140Y96713D01*
X466217Y97791D01*
X473583Y97791D01*
X478791Y92583D01*
X478791Y85217D01*
X473583Y80009D01*
X466217Y80009D01*
X461009Y85217D01*
X461009Y92583D01*
X462087Y93660D01*
X462088Y93662D01*
X462090Y93663D01*
X462106Y93707D01*
X462124Y93751D01*
X462123Y93753D01*
X462124Y93755D01*
X462087Y93839D01*
X458935Y96990D01*
X458932Y96992D01*
X458931Y96994D01*
X458846Y97027D01*
X449251Y97027D01*
X449250Y97027D01*
X449249Y97027D01*
X449205Y97008D01*
X449160Y96989D01*
X449160Y96988D01*
X449159Y96987D01*
X449142Y96942D01*
X449125Y96897D01*
X449125Y96896D01*
X449125Y96895D01*
X449162Y96812D01*
X453391Y92583D01*
X453391Y85217D01*
X448183Y80009D01*
X440817Y80009D01*
X435609Y85217D01*
X435609Y89784D01*
X435608Y89787D01*
X435609Y89790D01*
X435572Y89873D01*
X428455Y96990D01*
X428452Y96992D01*
X428451Y96994D01*
X428366Y97027D01*
X423851Y97027D01*
X423850Y97027D01*
X423849Y97027D01*
X423805Y97008D01*
X423760Y96989D01*
X423760Y96988D01*
X423759Y96987D01*
X423742Y96942D01*
X423725Y96897D01*
X423725Y96896D01*
X423725Y96895D01*
X423762Y96812D01*
X427991Y92583D01*
X427991Y85217D01*
X422783Y80009D01*
X415417Y80009D01*
X410209Y85217D01*
X410209Y92583D01*
X411287Y93660D01*
X411288Y93662D01*
X411290Y93663D01*
X411306Y93707D01*
X411324Y93751D01*
X411323Y93753D01*
X411324Y93755D01*
X411287Y93839D01*
X401827Y103298D01*
X401827Y109549D01*
X401827Y109550D01*
X401827Y109551D01*
X401808Y109595D01*
X401789Y109640D01*
X401788Y109640D01*
X401787Y109641D01*
X401742Y109658D01*
X401697Y109675D01*
X401696Y109675D01*
X401695Y109675D01*
X401612Y109638D01*
X397383Y105409D01*
X390017Y105409D01*
X385788Y109638D01*
X385787Y109639D01*
X385787Y109640D01*
X385741Y109657D01*
X385697Y109675D01*
X385696Y109675D01*
X385695Y109675D01*
X385651Y109655D01*
X385607Y109635D01*
X385607Y109634D01*
X385606Y109634D01*
X385573Y109549D01*
X385573Y99954D01*
X385574Y99951D01*
X385573Y99948D01*
X385610Y99865D01*
X388761Y96713D01*
X388763Y96712D01*
X388764Y96710D01*
X388809Y96694D01*
X388853Y96676D01*
X388855Y96677D01*
X388857Y96676D01*
X388940Y96713D01*
X390017Y97791D01*
X397383Y97791D01*
X402591Y92583D01*
X402591Y85217D01*
X397383Y80009D01*
X390017Y80009D01*
G37*
%LPD*%
%LPC*%
G36*
X248514Y512269D02*
X248514Y512269D01*
X247769Y513014D01*
X247769Y527066D01*
X248514Y527811D01*
X253619Y527811D01*
X253621Y527812D01*
X253623Y527811D01*
X253666Y527831D01*
X253710Y527849D01*
X253710Y527851D01*
X253712Y527852D01*
X253745Y527937D01*
X253745Y557590D01*
X253744Y557593D01*
X253745Y557596D01*
X253708Y557679D01*
X240839Y570548D01*
X240836Y570550D01*
X240835Y570552D01*
X240750Y570585D01*
X184157Y570585D01*
X184155Y570584D01*
X184153Y570585D01*
X184110Y570565D01*
X184066Y570547D01*
X184066Y570545D01*
X184064Y570544D01*
X184031Y570459D01*
X184031Y566354D01*
X183286Y565609D01*
X167234Y565609D01*
X166489Y566354D01*
X166489Y574421D01*
X166488Y574423D01*
X166489Y574425D01*
X166469Y574468D01*
X166451Y574512D01*
X166449Y574512D01*
X166448Y574514D01*
X166363Y574547D01*
X153012Y574547D01*
X152986Y574536D01*
X152958Y574535D01*
X152941Y574517D01*
X152921Y574509D01*
X152913Y574488D01*
X152895Y574469D01*
X152041Y572407D01*
X149969Y570335D01*
X147261Y569213D01*
X135260Y569213D01*
X135257Y569212D01*
X135254Y569213D01*
X135171Y569176D01*
X129408Y563413D01*
X129406Y563410D01*
X129404Y563409D01*
X129371Y563324D01*
X129371Y557589D01*
X129381Y557564D01*
X129382Y557537D01*
X129400Y557521D01*
X129409Y557498D01*
X129434Y557489D01*
X129454Y557470D01*
X129480Y557471D01*
X129501Y557463D01*
X129520Y557472D01*
X129545Y557473D01*
X132139Y558547D01*
X147261Y558547D01*
X149969Y557425D01*
X152041Y555353D01*
X153163Y552645D01*
X153163Y549715D01*
X152041Y547007D01*
X149969Y544935D01*
X147261Y543813D01*
X132139Y543813D01*
X129431Y544935D01*
X127359Y547007D01*
X126237Y549715D01*
X126237Y552645D01*
X127020Y554535D01*
X127020Y554562D01*
X127029Y554587D01*
X127019Y554609D01*
X127019Y554633D01*
X127000Y554652D01*
X126988Y554676D01*
X126964Y554686D01*
X126948Y554701D01*
X126926Y554700D01*
X126903Y554709D01*
X112574Y554709D01*
X111829Y555454D01*
X111829Y561821D01*
X111828Y561823D01*
X111829Y561825D01*
X111809Y561868D01*
X111791Y561912D01*
X111789Y561912D01*
X111788Y561914D01*
X111703Y561947D01*
X91497Y561947D01*
X91495Y561946D01*
X91493Y561947D01*
X91450Y561927D01*
X91406Y561909D01*
X91406Y561907D01*
X91404Y561906D01*
X91371Y561821D01*
X91371Y555454D01*
X90626Y554709D01*
X76297Y554709D01*
X76272Y554699D01*
X76245Y554698D01*
X76228Y554680D01*
X76206Y554671D01*
X76196Y554646D01*
X76178Y554626D01*
X76179Y554600D01*
X76171Y554579D01*
X76180Y554560D01*
X76180Y554535D01*
X76963Y552645D01*
X76963Y549715D01*
X75841Y547007D01*
X73769Y544935D01*
X71061Y543813D01*
X55939Y543813D01*
X53231Y544935D01*
X51159Y547007D01*
X50037Y549715D01*
X50037Y552645D01*
X51159Y555353D01*
X53231Y557425D01*
X55939Y558547D01*
X71061Y558547D01*
X73655Y557473D01*
X73682Y557473D01*
X73707Y557463D01*
X73729Y557473D01*
X73753Y557473D01*
X73772Y557493D01*
X73796Y557504D01*
X73806Y557529D01*
X73821Y557545D01*
X73820Y557566D01*
X73829Y557589D01*
X73829Y570171D01*
X73819Y570196D01*
X73818Y570223D01*
X73800Y570239D01*
X73791Y570262D01*
X73766Y570271D01*
X73746Y570290D01*
X73720Y570289D01*
X73699Y570297D01*
X73680Y570288D01*
X73655Y570287D01*
X71061Y569213D01*
X55939Y569213D01*
X53231Y570335D01*
X51159Y572407D01*
X50037Y575115D01*
X50037Y578045D01*
X51159Y580753D01*
X53231Y582825D01*
X55939Y583947D01*
X71061Y583947D01*
X73769Y582825D01*
X75841Y580753D01*
X76963Y578045D01*
X76963Y575115D01*
X76263Y573425D01*
X76263Y573398D01*
X76253Y573373D01*
X76264Y573351D01*
X76264Y573327D01*
X76283Y573308D01*
X76295Y573284D01*
X76319Y573274D01*
X76335Y573259D01*
X76356Y573260D01*
X76380Y573251D01*
X90626Y573251D01*
X91371Y572506D01*
X91371Y566139D01*
X91372Y566137D01*
X91371Y566135D01*
X91391Y566092D01*
X91409Y566048D01*
X91411Y566048D01*
X91412Y566046D01*
X91497Y566013D01*
X111703Y566013D01*
X111705Y566014D01*
X111707Y566013D01*
X111750Y566033D01*
X111794Y566051D01*
X111794Y566053D01*
X111796Y566054D01*
X111829Y566139D01*
X111829Y572506D01*
X112574Y573251D01*
X126820Y573251D01*
X126845Y573261D01*
X126872Y573262D01*
X126889Y573280D01*
X126911Y573289D01*
X126921Y573314D01*
X126939Y573334D01*
X126939Y573360D01*
X126947Y573381D01*
X126938Y573400D01*
X126937Y573425D01*
X126237Y575115D01*
X126237Y578045D01*
X127359Y580753D01*
X129431Y582825D01*
X132139Y583947D01*
X147261Y583947D01*
X149969Y582825D01*
X152041Y580753D01*
X152895Y578691D01*
X152915Y578671D01*
X152927Y578646D01*
X152950Y578637D01*
X152966Y578622D01*
X152988Y578622D01*
X153012Y578613D01*
X166363Y578613D01*
X166365Y578614D01*
X166367Y578613D01*
X166410Y578633D01*
X166454Y578651D01*
X166454Y578653D01*
X166456Y578654D01*
X166489Y578739D01*
X166489Y580406D01*
X167234Y581151D01*
X183286Y581151D01*
X184031Y580406D01*
X184031Y576301D01*
X184032Y576299D01*
X184031Y576297D01*
X184051Y576254D01*
X184069Y576210D01*
X184071Y576210D01*
X184072Y576208D01*
X184157Y576175D01*
X243118Y576175D01*
X259335Y559958D01*
X259335Y527937D01*
X259336Y527935D01*
X259335Y527933D01*
X259355Y527890D01*
X259373Y527846D01*
X259375Y527846D01*
X259376Y527844D01*
X259461Y527811D01*
X260306Y527811D01*
X260309Y527812D01*
X260312Y527811D01*
X260395Y527848D01*
X261122Y528575D01*
X297307Y528575D01*
X297309Y528576D01*
X297311Y528575D01*
X297354Y528595D01*
X297398Y528613D01*
X297398Y528615D01*
X297400Y528616D01*
X297433Y528701D01*
X297433Y528831D01*
X301749Y533147D01*
X307851Y533147D01*
X312167Y528831D01*
X312167Y522729D01*
X307851Y518413D01*
X301749Y518413D01*
X297433Y522729D01*
X297433Y522859D01*
X297432Y522861D01*
X297433Y522863D01*
X297413Y522906D01*
X297395Y522950D01*
X297393Y522950D01*
X297392Y522952D01*
X297307Y522985D01*
X265437Y522985D01*
X265435Y522984D01*
X265433Y522985D01*
X265390Y522965D01*
X265346Y522947D01*
X265346Y522945D01*
X265344Y522944D01*
X265311Y522859D01*
X265311Y513014D01*
X264566Y512269D01*
X248514Y512269D01*
G37*
%LPD*%
%LPC*%
G36*
X336206Y69764D02*
X336206Y69764D01*
X333924Y72046D01*
X333924Y74629D01*
X333923Y74632D01*
X333924Y74635D01*
X333887Y74718D01*
X330707Y77898D01*
X330707Y242142D01*
X353530Y264965D01*
X353532Y264968D01*
X353534Y264969D01*
X353567Y265054D01*
X353567Y289687D01*
X353566Y289689D01*
X353567Y289691D01*
X353547Y289734D01*
X353529Y289778D01*
X353527Y289778D01*
X353526Y289780D01*
X353441Y289813D01*
X352549Y289813D01*
X348233Y294129D01*
X348233Y300231D01*
X352549Y304547D01*
X358651Y304547D01*
X362967Y300231D01*
X362967Y294129D01*
X358651Y289813D01*
X357759Y289813D01*
X357757Y289812D01*
X357755Y289813D01*
X357712Y289793D01*
X357668Y289775D01*
X357668Y289773D01*
X357666Y289772D01*
X357633Y289687D01*
X357633Y263318D01*
X334810Y240495D01*
X334808Y240492D01*
X334806Y240491D01*
X334773Y240406D01*
X334773Y119051D01*
X334773Y119050D01*
X334773Y119049D01*
X334792Y119005D01*
X334811Y118960D01*
X334812Y118960D01*
X334813Y118959D01*
X334858Y118942D01*
X334903Y118925D01*
X334904Y118925D01*
X334905Y118925D01*
X334988Y118962D01*
X339217Y123191D01*
X346583Y123191D01*
X351791Y117983D01*
X351791Y110617D01*
X346583Y105409D01*
X339217Y105409D01*
X334988Y109638D01*
X334987Y109639D01*
X334987Y109640D01*
X334941Y109657D01*
X334897Y109675D01*
X334896Y109675D01*
X334895Y109675D01*
X334851Y109655D01*
X334807Y109635D01*
X334807Y109634D01*
X334806Y109634D01*
X334773Y109549D01*
X334773Y93651D01*
X334773Y93650D01*
X334773Y93649D01*
X334792Y93605D01*
X334811Y93560D01*
X334812Y93560D01*
X334813Y93559D01*
X334858Y93542D01*
X334903Y93525D01*
X334904Y93525D01*
X334905Y93525D01*
X334988Y93562D01*
X339217Y97791D01*
X346583Y97791D01*
X347660Y96713D01*
X347662Y96712D01*
X347663Y96710D01*
X347708Y96694D01*
X347751Y96676D01*
X347753Y96677D01*
X347755Y96676D01*
X347839Y96713D01*
X353530Y102405D01*
X353532Y102408D01*
X353534Y102409D01*
X353567Y102494D01*
X353567Y247222D01*
X399664Y293319D01*
X399665Y293321D01*
X399667Y293322D01*
X399684Y293367D01*
X399701Y293410D01*
X399700Y293412D01*
X399701Y293414D01*
X399664Y293498D01*
X399033Y294129D01*
X399033Y300231D01*
X399664Y300862D01*
X399665Y300864D01*
X399667Y300865D01*
X399683Y300910D01*
X399701Y300954D01*
X399700Y300956D01*
X399701Y300958D01*
X399664Y301041D01*
X399287Y301418D01*
X399287Y308986D01*
X399286Y308989D01*
X399287Y308992D01*
X399250Y309075D01*
X394207Y314118D01*
X394207Y433351D01*
X394206Y433354D01*
X394207Y433357D01*
X394170Y433440D01*
X392344Y435266D01*
X392344Y438494D01*
X394626Y440776D01*
X397854Y440776D01*
X400136Y438494D01*
X400136Y435266D01*
X398310Y433440D01*
X398308Y433437D01*
X398306Y433436D01*
X398273Y433351D01*
X398273Y315854D01*
X398274Y315851D01*
X398273Y315848D01*
X398310Y315765D01*
X403353Y310722D01*
X403353Y304673D01*
X403354Y304671D01*
X403353Y304669D01*
X403373Y304626D01*
X403391Y304582D01*
X403393Y304582D01*
X403394Y304580D01*
X403479Y304547D01*
X409451Y304547D01*
X413767Y300231D01*
X413767Y294129D01*
X409451Y289813D01*
X403349Y289813D01*
X402718Y290444D01*
X402716Y290445D01*
X402715Y290447D01*
X402670Y290463D01*
X402626Y290481D01*
X402624Y290480D01*
X402622Y290481D01*
X402539Y290444D01*
X357670Y245575D01*
X357668Y245572D01*
X357666Y245571D01*
X357633Y245486D01*
X357633Y100758D01*
X356405Y99530D01*
X350713Y93839D01*
X350712Y93837D01*
X350710Y93836D01*
X350694Y93791D01*
X350676Y93747D01*
X350677Y93745D01*
X350676Y93743D01*
X350713Y93660D01*
X351791Y92583D01*
X351791Y85217D01*
X346583Y80009D01*
X339217Y80009D01*
X334988Y84238D01*
X334987Y84239D01*
X334987Y84240D01*
X334941Y84257D01*
X334897Y84275D01*
X334896Y84275D01*
X334895Y84275D01*
X334851Y84255D01*
X334807Y84235D01*
X334807Y84234D01*
X334806Y84234D01*
X334773Y84149D01*
X334773Y79634D01*
X334774Y79631D01*
X334773Y79628D01*
X334810Y79545D01*
X336762Y77593D01*
X336765Y77591D01*
X336766Y77589D01*
X336851Y77556D01*
X339434Y77556D01*
X341716Y75274D01*
X341716Y72046D01*
X339434Y69764D01*
X336206Y69764D01*
G37*
%LPD*%
%LPC*%
G36*
X364617Y80009D02*
X364617Y80009D01*
X359409Y85217D01*
X359409Y92583D01*
X364617Y97791D01*
X371983Y97791D01*
X373060Y96713D01*
X373062Y96712D01*
X373063Y96710D01*
X373108Y96694D01*
X373151Y96676D01*
X373153Y96677D01*
X373155Y96676D01*
X373239Y96713D01*
X376390Y99865D01*
X376392Y99868D01*
X376394Y99869D01*
X376427Y99954D01*
X376427Y109549D01*
X376427Y109550D01*
X376427Y109551D01*
X376408Y109595D01*
X376389Y109640D01*
X376388Y109640D01*
X376387Y109641D01*
X376342Y109658D01*
X376297Y109675D01*
X376296Y109675D01*
X376295Y109675D01*
X376212Y109638D01*
X371983Y105409D01*
X364617Y105409D01*
X359409Y110617D01*
X359409Y117983D01*
X364617Y123191D01*
X366141Y123191D01*
X366143Y123192D01*
X366145Y123191D01*
X366188Y123211D01*
X366232Y123229D01*
X366232Y123231D01*
X366234Y123232D01*
X366267Y123317D01*
X366267Y245391D01*
X366266Y245394D01*
X366267Y245397D01*
X366230Y245480D01*
X364404Y247306D01*
X364404Y250534D01*
X366686Y252816D01*
X369914Y252816D01*
X372196Y250534D01*
X372196Y247306D01*
X370370Y245480D01*
X370368Y245477D01*
X370366Y245476D01*
X370333Y245391D01*
X370333Y123317D01*
X370334Y123315D01*
X370333Y123313D01*
X370353Y123270D01*
X370371Y123226D01*
X370373Y123226D01*
X370374Y123224D01*
X370459Y123191D01*
X371983Y123191D01*
X376212Y118962D01*
X376213Y118961D01*
X376213Y118960D01*
X376259Y118943D01*
X376303Y118925D01*
X376304Y118925D01*
X376305Y118925D01*
X376349Y118945D01*
X376393Y118965D01*
X376393Y118966D01*
X376394Y118966D01*
X376427Y119051D01*
X376427Y252302D01*
X414490Y290365D01*
X414492Y290368D01*
X414494Y290369D01*
X414527Y290454D01*
X414527Y311526D01*
X414526Y311529D01*
X414527Y311532D01*
X414490Y311615D01*
X410261Y315844D01*
X410259Y315845D01*
X410258Y315847D01*
X410213Y315864D01*
X410170Y315881D01*
X410168Y315880D01*
X410166Y315881D01*
X410082Y315844D01*
X409451Y315213D01*
X403349Y315213D01*
X399033Y319529D01*
X399033Y325631D01*
X403349Y329947D01*
X404241Y329947D01*
X404243Y329948D01*
X404245Y329947D01*
X404288Y329967D01*
X404332Y329985D01*
X404332Y329987D01*
X404334Y329988D01*
X404367Y330073D01*
X404367Y446051D01*
X404366Y446054D01*
X404367Y446057D01*
X404330Y446140D01*
X402504Y447966D01*
X402504Y451194D01*
X404786Y453476D01*
X408014Y453476D01*
X410296Y451194D01*
X410296Y447966D01*
X408470Y446140D01*
X408468Y446137D01*
X408466Y446136D01*
X408433Y446051D01*
X408433Y330073D01*
X408434Y330071D01*
X408433Y330069D01*
X408453Y330026D01*
X408471Y329982D01*
X408473Y329982D01*
X408474Y329980D01*
X408559Y329947D01*
X409451Y329947D01*
X413767Y325631D01*
X413767Y319529D01*
X413136Y318898D01*
X413135Y318896D01*
X413133Y318895D01*
X413117Y318850D01*
X413099Y318806D01*
X413100Y318804D01*
X413099Y318802D01*
X413136Y318719D01*
X418593Y313262D01*
X418593Y288718D01*
X380530Y250655D01*
X380528Y250652D01*
X380526Y250651D01*
X380493Y250566D01*
X380493Y98218D01*
X379265Y96990D01*
X376113Y93839D01*
X376112Y93837D01*
X376110Y93836D01*
X376094Y93791D01*
X376076Y93747D01*
X376077Y93745D01*
X376076Y93743D01*
X376113Y93660D01*
X377191Y92583D01*
X377191Y85217D01*
X371983Y80009D01*
X364617Y80009D01*
G37*
%LPD*%
%LPC*%
G36*
X341881Y580027D02*
X341881Y580027D01*
X335006Y581869D01*
X328842Y585428D01*
X323808Y590462D01*
X320249Y596626D01*
X318407Y603501D01*
X318407Y610619D01*
X320249Y617494D01*
X323808Y623658D01*
X328842Y628692D01*
X335006Y632251D01*
X341881Y634093D01*
X348999Y634093D01*
X355874Y632251D01*
X362038Y628692D01*
X367072Y623658D01*
X370631Y617494D01*
X372473Y610619D01*
X372473Y603501D01*
X370631Y596626D01*
X367072Y590462D01*
X362038Y585428D01*
X355874Y581869D01*
X348999Y580027D01*
X341881Y580027D01*
G37*
%LPD*%
%LPC*%
G36*
X132139Y416813D02*
X132139Y416813D01*
X129431Y417935D01*
X127359Y420007D01*
X126237Y422715D01*
X126237Y425645D01*
X127359Y428353D01*
X129431Y430425D01*
X132139Y431547D01*
X147261Y431547D01*
X149969Y430425D01*
X152041Y428353D01*
X152895Y426291D01*
X152915Y426271D01*
X152927Y426246D01*
X152950Y426237D01*
X152966Y426222D01*
X152988Y426222D01*
X153012Y426213D01*
X160401Y426213D01*
X160403Y426214D01*
X160405Y426213D01*
X160448Y426233D01*
X160492Y426251D01*
X160492Y426253D01*
X160494Y426254D01*
X160527Y426339D01*
X160527Y495066D01*
X160526Y495069D01*
X160527Y495072D01*
X160490Y495155D01*
X157335Y498310D01*
X157332Y498312D01*
X157331Y498314D01*
X157246Y498347D01*
X153012Y498347D01*
X152986Y498336D01*
X152958Y498335D01*
X152941Y498317D01*
X152921Y498309D01*
X152913Y498288D01*
X152895Y498269D01*
X152041Y496207D01*
X149969Y494135D01*
X147261Y493013D01*
X132139Y493013D01*
X129431Y494135D01*
X127359Y496207D01*
X126237Y498915D01*
X126237Y501845D01*
X126937Y503535D01*
X126937Y503562D01*
X126947Y503587D01*
X126936Y503609D01*
X126936Y503633D01*
X126917Y503652D01*
X126905Y503676D01*
X126881Y503686D01*
X126865Y503701D01*
X126844Y503700D01*
X126820Y503709D01*
X112574Y503709D01*
X111829Y504454D01*
X111829Y521506D01*
X112574Y522251D01*
X126903Y522251D01*
X126928Y522261D01*
X126955Y522262D01*
X126972Y522280D01*
X126994Y522289D01*
X127004Y522314D01*
X127022Y522334D01*
X127021Y522360D01*
X127029Y522381D01*
X127020Y522400D01*
X127020Y522425D01*
X126237Y524315D01*
X126237Y527245D01*
X127359Y529953D01*
X129431Y532025D01*
X132139Y533147D01*
X147261Y533147D01*
X149969Y532025D01*
X152041Y529953D01*
X153163Y527245D01*
X153163Y524315D01*
X152041Y521607D01*
X149969Y519535D01*
X147261Y518413D01*
X132139Y518413D01*
X129545Y519487D01*
X129518Y519487D01*
X129493Y519497D01*
X129471Y519487D01*
X129447Y519487D01*
X129428Y519467D01*
X129404Y519456D01*
X129394Y519431D01*
X129379Y519415D01*
X129380Y519394D01*
X129371Y519371D01*
X129371Y507136D01*
X129372Y507133D01*
X129371Y507130D01*
X129408Y507047D01*
X129653Y506802D01*
X129679Y506791D01*
X129700Y506772D01*
X129725Y506773D01*
X129744Y506765D01*
X129765Y506774D01*
X129791Y506774D01*
X132139Y507747D01*
X147261Y507747D01*
X149969Y506625D01*
X152041Y504553D01*
X152895Y502491D01*
X152915Y502471D01*
X152927Y502446D01*
X152950Y502437D01*
X152966Y502422D01*
X152988Y502422D01*
X153012Y502413D01*
X158982Y502413D01*
X163365Y498030D01*
X163368Y498028D01*
X163369Y498026D01*
X163454Y497993D01*
X166363Y497993D01*
X166365Y497994D01*
X166367Y497993D01*
X166410Y498013D01*
X166454Y498031D01*
X166454Y498033D01*
X166456Y498034D01*
X166489Y498119D01*
X166489Y505526D01*
X167234Y506271D01*
X183286Y506271D01*
X184031Y505526D01*
X184031Y491474D01*
X183286Y490729D01*
X167234Y490729D01*
X166489Y491474D01*
X166489Y493801D01*
X166488Y493803D01*
X166489Y493805D01*
X166469Y493848D01*
X166451Y493892D01*
X166449Y493892D01*
X166448Y493894D01*
X166363Y493927D01*
X164719Y493927D01*
X164717Y493926D01*
X164715Y493927D01*
X164672Y493907D01*
X164628Y493889D01*
X164628Y493887D01*
X164626Y493886D01*
X164593Y493801D01*
X164593Y423338D01*
X163402Y422147D01*
X153012Y422147D01*
X152986Y422136D01*
X152958Y422135D01*
X152941Y422117D01*
X152921Y422109D01*
X152913Y422088D01*
X152895Y422069D01*
X152041Y420007D01*
X149969Y417935D01*
X147261Y416813D01*
X132139Y416813D01*
G37*
%LPD*%
%LPC*%
G36*
X136017Y105409D02*
X136017Y105409D01*
X130809Y110617D01*
X130809Y117983D01*
X136017Y123191D01*
X137541Y123191D01*
X137543Y123192D01*
X137545Y123191D01*
X137588Y123211D01*
X137632Y123229D01*
X137632Y123231D01*
X137634Y123232D01*
X137667Y123317D01*
X137667Y369851D01*
X137667Y369852D01*
X137667Y369853D01*
X137666Y369855D01*
X137667Y369857D01*
X137630Y369940D01*
X135804Y371766D01*
X135804Y374994D01*
X138086Y377276D01*
X141314Y377276D01*
X143596Y374994D01*
X143596Y371766D01*
X141770Y369940D01*
X141768Y369937D01*
X141766Y369936D01*
X141733Y369851D01*
X141733Y123317D01*
X141734Y123315D01*
X141733Y123313D01*
X141753Y123270D01*
X141771Y123226D01*
X141773Y123226D01*
X141774Y123224D01*
X141859Y123191D01*
X143383Y123191D01*
X148591Y117983D01*
X148591Y110617D01*
X143383Y105409D01*
X136017Y105409D01*
G37*
%LPD*%
%LPC*%
G36*
X110617Y105409D02*
X110617Y105409D01*
X105409Y110617D01*
X105409Y117983D01*
X110617Y123191D01*
X112141Y123191D01*
X112143Y123192D01*
X112145Y123191D01*
X112188Y123211D01*
X112232Y123229D01*
X112232Y123231D01*
X112234Y123232D01*
X112267Y123317D01*
X112267Y357151D01*
X112266Y357154D01*
X112267Y357157D01*
X112230Y357240D01*
X110404Y359066D01*
X110404Y362294D01*
X112686Y364576D01*
X115914Y364576D01*
X118196Y362294D01*
X118196Y359066D01*
X116370Y357240D01*
X116368Y357237D01*
X116366Y357236D01*
X116333Y357151D01*
X116333Y123317D01*
X116334Y123315D01*
X116333Y123313D01*
X116353Y123270D01*
X116371Y123226D01*
X116373Y123226D01*
X116374Y123224D01*
X116459Y123191D01*
X117983Y123191D01*
X123191Y117983D01*
X123191Y110617D01*
X117983Y105409D01*
X110617Y105409D01*
G37*
%LPD*%
%LPC*%
G36*
X85217Y105409D02*
X85217Y105409D01*
X80009Y110617D01*
X80009Y117983D01*
X85217Y123191D01*
X86741Y123191D01*
X86743Y123192D01*
X86745Y123191D01*
X86788Y123211D01*
X86832Y123229D01*
X86832Y123231D01*
X86834Y123232D01*
X86867Y123317D01*
X86867Y344451D01*
X86866Y344454D01*
X86867Y344457D01*
X86830Y344540D01*
X85004Y346366D01*
X85004Y349594D01*
X87286Y351876D01*
X90514Y351876D01*
X92796Y349594D01*
X92796Y346366D01*
X90970Y344540D01*
X90968Y344537D01*
X90966Y344536D01*
X90933Y344451D01*
X90933Y123317D01*
X90934Y123315D01*
X90933Y123313D01*
X90953Y123270D01*
X90971Y123226D01*
X90973Y123226D01*
X90974Y123224D01*
X91059Y123191D01*
X92583Y123191D01*
X97791Y117983D01*
X97791Y110617D01*
X92583Y105409D01*
X85217Y105409D01*
G37*
%LPD*%
%LPC*%
G36*
X59817Y105409D02*
X59817Y105409D01*
X54609Y110617D01*
X54609Y117983D01*
X59817Y123191D01*
X61341Y123191D01*
X61343Y123192D01*
X61345Y123191D01*
X61388Y123211D01*
X61432Y123229D01*
X61432Y123231D01*
X61434Y123232D01*
X61467Y123317D01*
X61467Y331751D01*
X61466Y331754D01*
X61467Y331757D01*
X61430Y331840D01*
X59604Y333666D01*
X59604Y336894D01*
X61886Y339176D01*
X65114Y339176D01*
X67396Y336894D01*
X67396Y333666D01*
X65570Y331840D01*
X65568Y331837D01*
X65566Y331836D01*
X65533Y331751D01*
X65533Y123317D01*
X65534Y123315D01*
X65533Y123313D01*
X65553Y123270D01*
X65571Y123226D01*
X65573Y123226D01*
X65574Y123224D01*
X65659Y123191D01*
X67183Y123191D01*
X72391Y117983D01*
X72391Y110617D01*
X67183Y105409D01*
X59817Y105409D01*
G37*
%LPD*%
%LPC*%
G36*
X341286Y133264D02*
X341286Y133264D01*
X339004Y135546D01*
X339004Y138774D01*
X340830Y140600D01*
X340832Y140603D01*
X340834Y140604D01*
X340867Y140689D01*
X340867Y242142D01*
X391630Y292905D01*
X391632Y292908D01*
X391634Y292909D01*
X391667Y292994D01*
X391667Y308986D01*
X391666Y308989D01*
X391667Y308992D01*
X391630Y309075D01*
X384861Y315844D01*
X384859Y315845D01*
X384858Y315847D01*
X384813Y315864D01*
X384770Y315881D01*
X384768Y315880D01*
X384766Y315881D01*
X384682Y315844D01*
X384051Y315213D01*
X377949Y315213D01*
X373633Y319529D01*
X373633Y325631D01*
X377949Y329947D01*
X384051Y329947D01*
X388367Y325631D01*
X388367Y319529D01*
X387736Y318898D01*
X387735Y318896D01*
X387733Y318895D01*
X387717Y318850D01*
X387699Y318806D01*
X387700Y318804D01*
X387699Y318802D01*
X387736Y318719D01*
X395733Y310722D01*
X395733Y291258D01*
X344970Y240495D01*
X344968Y240492D01*
X344966Y240491D01*
X344933Y240406D01*
X344933Y140689D01*
X344934Y140686D01*
X344933Y140683D01*
X344970Y140600D01*
X346796Y138774D01*
X346796Y135546D01*
X344514Y133264D01*
X341286Y133264D01*
G37*
%LPD*%
%LPC*%
G36*
X596494Y413209D02*
X596494Y413209D01*
X595749Y413954D01*
X595749Y421259D01*
X595748Y421261D01*
X595749Y421263D01*
X595729Y421306D01*
X595711Y421350D01*
X595709Y421350D01*
X595708Y421352D01*
X595623Y421385D01*
X566293Y421385D01*
X566291Y421384D01*
X566289Y421385D01*
X566246Y421365D01*
X566202Y421347D01*
X566202Y421345D01*
X566200Y421344D01*
X566167Y421259D01*
X566167Y421129D01*
X561851Y416813D01*
X555749Y416813D01*
X551433Y421129D01*
X551433Y421259D01*
X551432Y421261D01*
X551433Y421263D01*
X551413Y421306D01*
X551395Y421350D01*
X551393Y421350D01*
X551392Y421352D01*
X551307Y421385D01*
X540893Y421385D01*
X540891Y421384D01*
X540889Y421385D01*
X540846Y421365D01*
X540802Y421347D01*
X540802Y421345D01*
X540800Y421344D01*
X540767Y421259D01*
X540767Y421129D01*
X536451Y416813D01*
X530349Y416813D01*
X526033Y421129D01*
X526033Y427231D01*
X530349Y431547D01*
X536451Y431547D01*
X540767Y427231D01*
X540767Y427101D01*
X540768Y427099D01*
X540767Y427097D01*
X540787Y427054D01*
X540805Y427010D01*
X540807Y427010D01*
X540808Y427008D01*
X540893Y426975D01*
X551307Y426975D01*
X551309Y426976D01*
X551311Y426975D01*
X551354Y426995D01*
X551398Y427013D01*
X551398Y427015D01*
X551400Y427016D01*
X551433Y427101D01*
X551433Y427231D01*
X555749Y431547D01*
X561851Y431547D01*
X566167Y427231D01*
X566167Y427101D01*
X566168Y427099D01*
X566167Y427097D01*
X566187Y427054D01*
X566205Y427010D01*
X566207Y427010D01*
X566208Y427008D01*
X566293Y426975D01*
X595623Y426975D01*
X595625Y426976D01*
X595627Y426975D01*
X595670Y426995D01*
X595714Y427013D01*
X595714Y427015D01*
X595716Y427016D01*
X595749Y427101D01*
X595749Y428006D01*
X596494Y428751D01*
X612546Y428751D01*
X613291Y428006D01*
X613291Y413954D01*
X612546Y413209D01*
X596494Y413209D01*
G37*
%LPD*%
%LPC*%
G36*
X198891Y504189D02*
X198891Y504189D01*
X195624Y505543D01*
X193123Y508044D01*
X191911Y510969D01*
X191891Y510989D01*
X191879Y511014D01*
X191856Y511023D01*
X191841Y511038D01*
X191819Y511038D01*
X191794Y511047D01*
X184157Y511047D01*
X184155Y511046D01*
X184153Y511047D01*
X184110Y511027D01*
X184066Y511009D01*
X184066Y511007D01*
X184064Y511006D01*
X184031Y510921D01*
X184031Y510474D01*
X183286Y509729D01*
X167234Y509729D01*
X166489Y510474D01*
X166489Y524526D01*
X167234Y525271D01*
X183286Y525271D01*
X184031Y524526D01*
X184031Y515239D01*
X184032Y515237D01*
X184031Y515235D01*
X184051Y515192D01*
X184069Y515148D01*
X184071Y515148D01*
X184072Y515146D01*
X184157Y515113D01*
X191794Y515113D01*
X191820Y515124D01*
X191848Y515125D01*
X191865Y515143D01*
X191885Y515151D01*
X191893Y515172D01*
X191911Y515191D01*
X193123Y518116D01*
X195624Y520617D01*
X198891Y521971D01*
X217669Y521971D01*
X220936Y520617D01*
X223437Y518116D01*
X224791Y514849D01*
X224791Y511311D01*
X223437Y508044D01*
X220936Y505543D01*
X217669Y504189D01*
X198891Y504189D01*
G37*
%LPD*%
%LPC*%
G36*
X491617Y105409D02*
X491617Y105409D01*
X486409Y110617D01*
X486409Y117983D01*
X491617Y123191D01*
X493141Y123191D01*
X493143Y123192D01*
X493145Y123191D01*
X493188Y123211D01*
X493232Y123229D01*
X493232Y123231D01*
X493234Y123232D01*
X493267Y123317D01*
X493267Y249762D01*
X493907Y250402D01*
X493909Y250405D01*
X493911Y250406D01*
X493944Y250491D01*
X493944Y253074D01*
X496226Y255356D01*
X499454Y255356D01*
X501736Y253074D01*
X501736Y249846D01*
X499454Y247564D01*
X497459Y247564D01*
X497457Y247563D01*
X497455Y247564D01*
X497412Y247544D01*
X497368Y247526D01*
X497368Y247524D01*
X497366Y247523D01*
X497333Y247438D01*
X497333Y123317D01*
X497334Y123315D01*
X497333Y123313D01*
X497353Y123270D01*
X497371Y123226D01*
X497373Y123226D01*
X497374Y123224D01*
X497459Y123191D01*
X498983Y123191D01*
X504191Y117983D01*
X504191Y110617D01*
X498983Y105409D01*
X491617Y105409D01*
G37*
%LPD*%
%LPC*%
G36*
X530349Y543813D02*
X530349Y543813D01*
X526033Y548129D01*
X526033Y554231D01*
X530349Y558547D01*
X530479Y558547D01*
X530481Y558548D01*
X530483Y558547D01*
X530526Y558567D01*
X530570Y558585D01*
X530570Y558587D01*
X530572Y558588D01*
X530605Y558673D01*
X530605Y590543D01*
X530604Y590545D01*
X530605Y590547D01*
X530585Y590590D01*
X530567Y590634D01*
X530565Y590634D01*
X530564Y590636D01*
X530479Y590669D01*
X527034Y590669D01*
X526289Y591414D01*
X526289Y607466D01*
X527034Y608211D01*
X541086Y608211D01*
X541831Y607466D01*
X541831Y591414D01*
X541086Y590669D01*
X536321Y590669D01*
X536319Y590668D01*
X536317Y590669D01*
X536274Y590649D01*
X536230Y590631D01*
X536230Y590629D01*
X536228Y590628D01*
X536195Y590543D01*
X536195Y558673D01*
X536196Y558671D01*
X536195Y558669D01*
X536215Y558626D01*
X536233Y558582D01*
X536235Y558582D01*
X536236Y558580D01*
X536321Y558547D01*
X536451Y558547D01*
X540767Y554231D01*
X540767Y548129D01*
X536451Y543813D01*
X530349Y543813D01*
G37*
%LPD*%
%LPC*%
G36*
X547026Y247564D02*
X547026Y247564D01*
X544744Y249846D01*
X544744Y253074D01*
X546570Y254900D01*
X546572Y254903D01*
X546574Y254904D01*
X546607Y254989D01*
X546607Y338662D01*
X552064Y344119D01*
X552065Y344121D01*
X552067Y344122D01*
X552084Y344167D01*
X552101Y344210D01*
X552100Y344212D01*
X552101Y344214D01*
X552064Y344298D01*
X551433Y344929D01*
X551433Y351031D01*
X555749Y355347D01*
X561851Y355347D01*
X566167Y351031D01*
X566167Y344929D01*
X561851Y340613D01*
X555749Y340613D01*
X555118Y341244D01*
X555116Y341245D01*
X555115Y341247D01*
X555070Y341263D01*
X555026Y341281D01*
X555024Y341280D01*
X555022Y341281D01*
X554939Y341244D01*
X550710Y337015D01*
X550708Y337012D01*
X550706Y337011D01*
X550673Y336926D01*
X550673Y254989D01*
X550674Y254986D01*
X550673Y254983D01*
X550710Y254900D01*
X552536Y253074D01*
X552536Y249846D01*
X550254Y247564D01*
X547026Y247564D01*
G37*
%LPD*%
%LPC*%
G36*
X539406Y255184D02*
X539406Y255184D01*
X537124Y257466D01*
X537124Y260694D01*
X539406Y262976D01*
X541401Y262976D01*
X541403Y262977D01*
X541405Y262976D01*
X541448Y262996D01*
X541492Y263014D01*
X541492Y263016D01*
X541494Y263017D01*
X541527Y263102D01*
X541527Y336926D01*
X541526Y336929D01*
X541527Y336932D01*
X541490Y337015D01*
X537261Y341244D01*
X537259Y341245D01*
X537258Y341247D01*
X537213Y341264D01*
X537170Y341281D01*
X537168Y341280D01*
X537166Y341281D01*
X537082Y341244D01*
X536451Y340613D01*
X530349Y340613D01*
X526033Y344929D01*
X526033Y351031D01*
X530349Y355347D01*
X536451Y355347D01*
X540767Y351031D01*
X540767Y344929D01*
X540136Y344298D01*
X540135Y344296D01*
X540133Y344295D01*
X540117Y344250D01*
X540099Y344206D01*
X540100Y344204D01*
X540099Y344202D01*
X540136Y344119D01*
X545593Y338662D01*
X545593Y260778D01*
X544953Y260138D01*
X544951Y260135D01*
X544949Y260134D01*
X544916Y260049D01*
X544916Y257466D01*
X542634Y255184D01*
X539406Y255184D01*
G37*
%LPD*%
%LPC*%
G36*
X198891Y478789D02*
X198891Y478789D01*
X195624Y480143D01*
X193123Y482644D01*
X191769Y485911D01*
X191769Y489449D01*
X193123Y492716D01*
X195624Y495217D01*
X198891Y496571D01*
X217669Y496571D01*
X220936Y495217D01*
X223437Y492716D01*
X224791Y489449D01*
X224791Y485911D01*
X223437Y482644D01*
X220936Y480143D01*
X217669Y478789D01*
X198891Y478789D01*
G37*
%LPD*%
%LPC*%
G36*
X72559Y513233D02*
X72559Y513233D01*
X72559Y518845D01*
X72549Y518870D01*
X72548Y518897D01*
X72530Y518913D01*
X72521Y518935D01*
X72496Y518945D01*
X72476Y518964D01*
X72450Y518963D01*
X72429Y518971D01*
X72410Y518962D01*
X72385Y518961D01*
X71061Y518413D01*
X55939Y518413D01*
X53231Y519535D01*
X51159Y521607D01*
X50037Y524315D01*
X50037Y527245D01*
X51159Y529953D01*
X53231Y532025D01*
X55939Y533147D01*
X71061Y533147D01*
X73769Y532025D01*
X75841Y529953D01*
X76963Y527245D01*
X76963Y524315D01*
X76706Y523695D01*
X76706Y523668D01*
X76697Y523643D01*
X76707Y523621D01*
X76707Y523597D01*
X76727Y523578D01*
X76738Y523554D01*
X76762Y523544D01*
X76778Y523529D01*
X76800Y523530D01*
X76823Y523521D01*
X82347Y523521D01*
X82347Y513233D01*
X72559Y513233D01*
G37*
%LPD*%
%LPC*%
G36*
X593954Y288749D02*
X593954Y288749D01*
X593209Y289494D01*
X593209Y294513D01*
X593208Y294515D01*
X593209Y294517D01*
X593189Y294560D01*
X593171Y294604D01*
X593169Y294604D01*
X593168Y294606D01*
X593083Y294639D01*
X584681Y294639D01*
X584678Y294638D01*
X584675Y294639D01*
X584592Y294602D01*
X583274Y293284D01*
X580046Y293284D01*
X577764Y295566D01*
X577764Y298794D01*
X580046Y301076D01*
X583274Y301076D01*
X584592Y299758D01*
X584595Y299756D01*
X584596Y299754D01*
X584681Y299721D01*
X593083Y299721D01*
X593085Y299722D01*
X593087Y299721D01*
X593130Y299741D01*
X593174Y299759D01*
X593174Y299761D01*
X593176Y299762D01*
X593209Y299847D01*
X593209Y303546D01*
X593954Y304291D01*
X610006Y304291D01*
X610751Y303546D01*
X610751Y289494D01*
X610006Y288749D01*
X593954Y288749D01*
G37*
%LPD*%
%LPC*%
G36*
X257466Y280584D02*
X257466Y280584D01*
X255184Y282866D01*
X255184Y286094D01*
X256502Y287412D01*
X256504Y287415D01*
X256506Y287416D01*
X256539Y287501D01*
X256539Y295023D01*
X256538Y295025D01*
X256539Y295027D01*
X256519Y295070D01*
X256501Y295114D01*
X256499Y295114D01*
X256498Y295116D01*
X256413Y295149D01*
X251054Y295149D01*
X250309Y295894D01*
X250309Y309946D01*
X251054Y310691D01*
X267106Y310691D01*
X267851Y309946D01*
X267851Y295894D01*
X267106Y295149D01*
X261747Y295149D01*
X261745Y295148D01*
X261743Y295149D01*
X261700Y295129D01*
X261656Y295111D01*
X261656Y295109D01*
X261654Y295108D01*
X261621Y295023D01*
X261621Y287501D01*
X261622Y287498D01*
X261621Y287495D01*
X261658Y287412D01*
X262976Y286094D01*
X262976Y282866D01*
X260694Y280584D01*
X257466Y280584D01*
G37*
%LPD*%
%LPC*%
G36*
X132139Y442213D02*
X132139Y442213D01*
X129431Y443335D01*
X127359Y445407D01*
X126237Y448115D01*
X126237Y451045D01*
X127359Y453753D01*
X129431Y455825D01*
X132139Y456947D01*
X147261Y456947D01*
X149969Y455825D01*
X152041Y453753D01*
X153163Y451045D01*
X153163Y448115D01*
X152041Y445407D01*
X149969Y443335D01*
X147261Y442213D01*
X132139Y442213D01*
G37*
%LPD*%
%LPC*%
G36*
X55939Y442213D02*
X55939Y442213D01*
X53231Y443335D01*
X51159Y445407D01*
X50037Y448115D01*
X50037Y451045D01*
X51159Y453753D01*
X53231Y455825D01*
X55939Y456947D01*
X71061Y456947D01*
X73769Y455825D01*
X75841Y453753D01*
X76963Y451045D01*
X76963Y448115D01*
X75841Y445407D01*
X73769Y443335D01*
X71061Y442213D01*
X55939Y442213D01*
G37*
%LPD*%
%LPC*%
G36*
X55939Y467613D02*
X55939Y467613D01*
X53231Y468735D01*
X51159Y470807D01*
X50037Y473515D01*
X50037Y476445D01*
X51159Y479153D01*
X53231Y481225D01*
X55939Y482347D01*
X71061Y482347D01*
X73769Y481225D01*
X75841Y479153D01*
X76963Y476445D01*
X76963Y473515D01*
X75841Y470807D01*
X73769Y468735D01*
X71061Y467613D01*
X55939Y467613D01*
G37*
%LPD*%
%LPC*%
G36*
X132139Y467613D02*
X132139Y467613D01*
X129431Y468735D01*
X127359Y470807D01*
X126237Y473515D01*
X126237Y476445D01*
X127359Y479153D01*
X129431Y481225D01*
X132139Y482347D01*
X147261Y482347D01*
X149969Y481225D01*
X152041Y479153D01*
X153163Y476445D01*
X153163Y473515D01*
X152041Y470807D01*
X149969Y468735D01*
X147261Y467613D01*
X132139Y467613D01*
G37*
%LPD*%
%LPC*%
G36*
X110617Y80009D02*
X110617Y80009D01*
X105409Y85217D01*
X105409Y92583D01*
X110617Y97791D01*
X117983Y97791D01*
X123191Y92583D01*
X123191Y85217D01*
X117983Y80009D01*
X110617Y80009D01*
G37*
%LPD*%
%LPC*%
G36*
X85217Y80009D02*
X85217Y80009D01*
X80009Y85217D01*
X80009Y92583D01*
X85217Y97791D01*
X92583Y97791D01*
X97791Y92583D01*
X97791Y85217D01*
X92583Y80009D01*
X85217Y80009D01*
G37*
%LPD*%
%LPC*%
G36*
X237617Y80009D02*
X237617Y80009D01*
X232409Y85217D01*
X232409Y92583D01*
X237617Y97791D01*
X244983Y97791D01*
X250191Y92583D01*
X250191Y85217D01*
X244983Y80009D01*
X237617Y80009D01*
G37*
%LPD*%
%LPC*%
G36*
X567817Y105409D02*
X567817Y105409D01*
X562609Y110617D01*
X562609Y117983D01*
X567817Y123191D01*
X575183Y123191D01*
X580391Y117983D01*
X580391Y110617D01*
X575183Y105409D01*
X567817Y105409D01*
G37*
%LPD*%
%LPC*%
G36*
X263017Y80009D02*
X263017Y80009D01*
X257809Y85217D01*
X257809Y92583D01*
X263017Y97791D01*
X270383Y97791D01*
X275591Y92583D01*
X275591Y85217D01*
X270383Y80009D01*
X263017Y80009D01*
G37*
%LPD*%
%LPC*%
G36*
X59817Y80009D02*
X59817Y80009D01*
X54609Y85217D01*
X54609Y92583D01*
X59817Y97791D01*
X67183Y97791D01*
X72391Y92583D01*
X72391Y85217D01*
X67183Y80009D01*
X59817Y80009D01*
G37*
%LPD*%
%LPC*%
G36*
X212217Y80009D02*
X212217Y80009D01*
X207009Y85217D01*
X207009Y92583D01*
X212217Y97791D01*
X219583Y97791D01*
X224791Y92583D01*
X224791Y85217D01*
X219583Y80009D01*
X212217Y80009D01*
G37*
%LPD*%
%LPC*%
G36*
X288417Y80009D02*
X288417Y80009D01*
X283209Y85217D01*
X283209Y92583D01*
X288417Y97791D01*
X295783Y97791D01*
X300991Y92583D01*
X300991Y85217D01*
X295783Y80009D01*
X288417Y80009D01*
G37*
%LPD*%
%LPC*%
G36*
X593217Y80009D02*
X593217Y80009D01*
X588009Y85217D01*
X588009Y92583D01*
X593217Y97791D01*
X600583Y97791D01*
X605791Y92583D01*
X605791Y85217D01*
X600583Y80009D01*
X593217Y80009D01*
G37*
%LPD*%
%LPC*%
G36*
X618617Y80009D02*
X618617Y80009D01*
X613409Y85217D01*
X613409Y92583D01*
X618617Y97791D01*
X625983Y97791D01*
X631191Y92583D01*
X631191Y85217D01*
X625983Y80009D01*
X618617Y80009D01*
G37*
%LPD*%
%LPC*%
G36*
X567817Y80009D02*
X567817Y80009D01*
X562609Y85217D01*
X562609Y92583D01*
X567817Y97791D01*
X575183Y97791D01*
X580391Y92583D01*
X580391Y85217D01*
X575183Y80009D01*
X567817Y80009D01*
G37*
%LPD*%
%LPC*%
G36*
X161417Y105409D02*
X161417Y105409D01*
X156209Y110617D01*
X156209Y117983D01*
X161417Y123191D01*
X168783Y123191D01*
X173991Y117983D01*
X173991Y110617D01*
X168783Y105409D01*
X161417Y105409D01*
G37*
%LPD*%
%LPC*%
G36*
X186817Y105409D02*
X186817Y105409D01*
X181609Y110617D01*
X181609Y117983D01*
X186817Y123191D01*
X194183Y123191D01*
X199391Y117983D01*
X199391Y110617D01*
X194183Y105409D01*
X186817Y105409D01*
G37*
%LPD*%
%LPC*%
G36*
X237617Y105409D02*
X237617Y105409D01*
X232409Y110617D01*
X232409Y117983D01*
X237617Y123191D01*
X244983Y123191D01*
X250191Y117983D01*
X250191Y110617D01*
X244983Y105409D01*
X237617Y105409D01*
G37*
%LPD*%
%LPC*%
G36*
X517017Y105409D02*
X517017Y105409D01*
X511809Y110617D01*
X511809Y117983D01*
X517017Y123191D01*
X524383Y123191D01*
X529591Y117983D01*
X529591Y110617D01*
X524383Y105409D01*
X517017Y105409D01*
G37*
%LPD*%
%LPC*%
G36*
X288417Y105409D02*
X288417Y105409D01*
X283209Y110617D01*
X283209Y117983D01*
X288417Y123191D01*
X295783Y123191D01*
X300991Y117983D01*
X300991Y110617D01*
X295783Y105409D01*
X288417Y105409D01*
G37*
%LPD*%
%LPC*%
G36*
X263017Y105409D02*
X263017Y105409D01*
X257809Y110617D01*
X257809Y117983D01*
X263017Y123191D01*
X270383Y123191D01*
X275591Y117983D01*
X275591Y110617D01*
X270383Y105409D01*
X263017Y105409D01*
G37*
%LPD*%
%LPC*%
G36*
X186817Y80009D02*
X186817Y80009D01*
X181609Y85217D01*
X181609Y92583D01*
X186817Y97791D01*
X194183Y97791D01*
X199391Y92583D01*
X199391Y85217D01*
X194183Y80009D01*
X186817Y80009D01*
G37*
%LPD*%
%LPC*%
G36*
X212217Y105409D02*
X212217Y105409D01*
X207009Y110617D01*
X207009Y117983D01*
X212217Y123191D01*
X219583Y123191D01*
X224791Y117983D01*
X224791Y110617D01*
X219583Y105409D01*
X212217Y105409D01*
G37*
%LPD*%
%LPC*%
G36*
X161417Y80009D02*
X161417Y80009D01*
X156209Y85217D01*
X156209Y92583D01*
X161417Y97791D01*
X168783Y97791D01*
X173991Y92583D01*
X173991Y85217D01*
X168783Y80009D01*
X161417Y80009D01*
G37*
%LPD*%
%LPC*%
G36*
X136017Y80009D02*
X136017Y80009D01*
X130809Y85217D01*
X130809Y92583D01*
X136017Y97791D01*
X143383Y97791D01*
X148591Y92583D01*
X148591Y85217D01*
X143383Y80009D01*
X136017Y80009D01*
G37*
%LPD*%
%LPC*%
G36*
X63753Y500633D02*
X63753Y500633D01*
X63753Y509017D01*
X70447Y509017D01*
X72115Y508685D01*
X72385Y508573D01*
X72412Y508573D01*
X72437Y508564D01*
X72459Y508574D01*
X72483Y508574D01*
X72502Y508594D01*
X72526Y508605D01*
X72536Y508629D01*
X72551Y508645D01*
X72550Y508667D01*
X72559Y508690D01*
X72559Y512727D01*
X82347Y512727D01*
X82347Y502439D01*
X78146Y502439D01*
X78132Y502433D01*
X78118Y502436D01*
X78089Y502415D01*
X78055Y502401D01*
X78050Y502387D01*
X78038Y502378D01*
X78031Y502337D01*
X78020Y502309D01*
X78024Y502300D01*
X78022Y502288D01*
X78233Y501231D01*
X78233Y500633D01*
X63753Y500633D01*
G37*
%LPD*%
%LPC*%
G36*
X327149Y518413D02*
X327149Y518413D01*
X322833Y522729D01*
X322833Y528831D01*
X327149Y533147D01*
X333251Y533147D01*
X337567Y528831D01*
X337567Y522729D01*
X333251Y518413D01*
X327149Y518413D01*
G37*
%LPD*%
%LPC*%
G36*
X327149Y442213D02*
X327149Y442213D01*
X322833Y446529D01*
X322833Y452631D01*
X327149Y456947D01*
X333251Y456947D01*
X337567Y452631D01*
X337567Y446529D01*
X333251Y442213D01*
X327149Y442213D01*
G37*
%LPD*%
%LPC*%
G36*
X530349Y518413D02*
X530349Y518413D01*
X526033Y522729D01*
X526033Y528831D01*
X530349Y533147D01*
X536451Y533147D01*
X540767Y528831D01*
X540767Y522729D01*
X536451Y518413D01*
X530349Y518413D01*
G37*
%LPD*%
%LPC*%
G36*
X327149Y315213D02*
X327149Y315213D01*
X322833Y319529D01*
X322833Y325631D01*
X327149Y329947D01*
X333251Y329947D01*
X337567Y325631D01*
X337567Y319529D01*
X333251Y315213D01*
X327149Y315213D01*
G37*
%LPD*%
%LPC*%
G36*
X530349Y467613D02*
X530349Y467613D01*
X526033Y471929D01*
X526033Y478031D01*
X530349Y482347D01*
X536451Y482347D01*
X540767Y478031D01*
X540767Y471929D01*
X536451Y467613D01*
X530349Y467613D01*
G37*
%LPD*%
%LPC*%
G36*
X377949Y289813D02*
X377949Y289813D01*
X373633Y294129D01*
X373633Y300231D01*
X377949Y304547D01*
X384051Y304547D01*
X388367Y300231D01*
X388367Y294129D01*
X384051Y289813D01*
X377949Y289813D01*
G37*
%LPD*%
%LPC*%
G36*
X327149Y467613D02*
X327149Y467613D01*
X322833Y471929D01*
X322833Y478031D01*
X327149Y482347D01*
X333251Y482347D01*
X337567Y478031D01*
X337567Y471929D01*
X333251Y467613D01*
X327149Y467613D01*
G37*
%LPD*%
%LPC*%
G36*
X555749Y467613D02*
X555749Y467613D01*
X551433Y471929D01*
X551433Y478031D01*
X555749Y482347D01*
X561851Y482347D01*
X566167Y478031D01*
X566167Y471929D01*
X561851Y467613D01*
X555749Y467613D01*
G37*
%LPD*%
%LPC*%
G36*
X327149Y289813D02*
X327149Y289813D01*
X322833Y294129D01*
X322833Y300231D01*
X327149Y304547D01*
X333251Y304547D01*
X337567Y300231D01*
X337567Y294129D01*
X333251Y289813D01*
X327149Y289813D01*
G37*
%LPD*%
%LPC*%
G36*
X301749Y416813D02*
X301749Y416813D01*
X297433Y421129D01*
X297433Y427231D01*
X301749Y431547D01*
X307851Y431547D01*
X312167Y427231D01*
X312167Y421129D01*
X307851Y416813D01*
X301749Y416813D01*
G37*
%LPD*%
%LPC*%
G36*
X301749Y442213D02*
X301749Y442213D01*
X297433Y446529D01*
X297433Y452631D01*
X301749Y456947D01*
X307851Y456947D01*
X312167Y452631D01*
X312167Y446529D01*
X307851Y442213D01*
X301749Y442213D01*
G37*
%LPD*%
%LPC*%
G36*
X301749Y340613D02*
X301749Y340613D01*
X297433Y344929D01*
X297433Y351031D01*
X301749Y355347D01*
X307851Y355347D01*
X312167Y351031D01*
X312167Y344929D01*
X307851Y340613D01*
X301749Y340613D01*
G37*
%LPD*%
%LPC*%
G36*
X530349Y442213D02*
X530349Y442213D01*
X526033Y446529D01*
X526033Y452631D01*
X530349Y456947D01*
X536451Y456947D01*
X540767Y452631D01*
X540767Y446529D01*
X536451Y442213D01*
X530349Y442213D01*
G37*
%LPD*%
%LPC*%
G36*
X555749Y518413D02*
X555749Y518413D01*
X551433Y522729D01*
X551433Y528831D01*
X555749Y533147D01*
X561851Y533147D01*
X566167Y528831D01*
X566167Y522729D01*
X561851Y518413D01*
X555749Y518413D01*
G37*
%LPD*%
%LPC*%
G36*
X555749Y442213D02*
X555749Y442213D01*
X551433Y446529D01*
X551433Y452631D01*
X555749Y456947D01*
X561851Y456947D01*
X566167Y452631D01*
X566167Y446529D01*
X561851Y442213D01*
X555749Y442213D01*
G37*
%LPD*%
%LPC*%
G36*
X555749Y493013D02*
X555749Y493013D01*
X551433Y497329D01*
X551433Y503431D01*
X555749Y507747D01*
X561851Y507747D01*
X566167Y503431D01*
X566167Y497329D01*
X561851Y493013D01*
X555749Y493013D01*
G37*
%LPD*%
%LPC*%
G36*
X530349Y493013D02*
X530349Y493013D01*
X526033Y497329D01*
X526033Y503431D01*
X530349Y507747D01*
X536451Y507747D01*
X540767Y503431D01*
X540767Y497329D01*
X536451Y493013D01*
X530349Y493013D01*
G37*
%LPD*%
%LPC*%
G36*
X530349Y366013D02*
X530349Y366013D01*
X526033Y370329D01*
X526033Y376431D01*
X530349Y380747D01*
X536451Y380747D01*
X540767Y376431D01*
X540767Y370329D01*
X536451Y366013D01*
X530349Y366013D01*
G37*
%LPD*%
%LPC*%
G36*
X530349Y289813D02*
X530349Y289813D01*
X526033Y294129D01*
X526033Y300231D01*
X530349Y304547D01*
X536451Y304547D01*
X540767Y300231D01*
X540767Y294129D01*
X536451Y289813D01*
X530349Y289813D01*
G37*
%LPD*%
%LPC*%
G36*
X301749Y366013D02*
X301749Y366013D01*
X297433Y370329D01*
X297433Y376431D01*
X301749Y380747D01*
X307851Y380747D01*
X312167Y376431D01*
X312167Y370329D01*
X307851Y366013D01*
X301749Y366013D01*
G37*
%LPD*%
%LPC*%
G36*
X327149Y340613D02*
X327149Y340613D01*
X322833Y344929D01*
X322833Y351031D01*
X327149Y355347D01*
X333251Y355347D01*
X337567Y351031D01*
X337567Y344929D01*
X333251Y340613D01*
X327149Y340613D01*
G37*
%LPD*%
%LPC*%
G36*
X555749Y366013D02*
X555749Y366013D01*
X551433Y370329D01*
X551433Y376431D01*
X555749Y380747D01*
X561851Y380747D01*
X566167Y376431D01*
X566167Y370329D01*
X561851Y366013D01*
X555749Y366013D01*
G37*
%LPD*%
%LPC*%
G36*
X327149Y366013D02*
X327149Y366013D01*
X322833Y370329D01*
X322833Y376431D01*
X327149Y380747D01*
X333251Y380747D01*
X337567Y376431D01*
X337567Y370329D01*
X333251Y366013D01*
X327149Y366013D01*
G37*
%LPD*%
%LPC*%
G36*
X555749Y391413D02*
X555749Y391413D01*
X551433Y395729D01*
X551433Y401831D01*
X555749Y406147D01*
X561851Y406147D01*
X566167Y401831D01*
X566167Y395729D01*
X561851Y391413D01*
X555749Y391413D01*
G37*
%LPD*%
%LPC*%
G36*
X63753Y424433D02*
X63753Y424433D01*
X63753Y432817D01*
X70447Y432817D01*
X72115Y432485D01*
X73687Y431834D01*
X75101Y430889D01*
X76305Y429685D01*
X77250Y428271D01*
X77901Y426699D01*
X78233Y425031D01*
X78233Y424433D01*
X63753Y424433D01*
G37*
%LPD*%
%LPC*%
G36*
X48767Y500633D02*
X48767Y500633D01*
X48767Y501231D01*
X49099Y502899D01*
X49750Y504471D01*
X50695Y505885D01*
X51899Y507089D01*
X53313Y508034D01*
X54885Y508685D01*
X56553Y509017D01*
X63247Y509017D01*
X63247Y500633D01*
X48767Y500633D01*
G37*
%LPD*%
%LPC*%
G36*
X48767Y424433D02*
X48767Y424433D01*
X48767Y425031D01*
X49099Y426699D01*
X49750Y428271D01*
X50695Y429685D01*
X51899Y430889D01*
X53313Y431834D01*
X54885Y432485D01*
X56553Y432817D01*
X63247Y432817D01*
X63247Y424433D01*
X48767Y424433D01*
G37*
%LPD*%
%LPC*%
G36*
X63753Y491743D02*
X63753Y491743D01*
X63753Y500127D01*
X78233Y500127D01*
X78233Y499529D01*
X77901Y497861D01*
X77250Y496289D01*
X76305Y494875D01*
X75101Y493671D01*
X73687Y492726D01*
X72115Y492075D01*
X70447Y491743D01*
X63753Y491743D01*
G37*
%LPD*%
%LPC*%
G36*
X63753Y415543D02*
X63753Y415543D01*
X63753Y423927D01*
X78233Y423927D01*
X78233Y423329D01*
X77901Y421661D01*
X77250Y420089D01*
X76305Y418675D01*
X75101Y417471D01*
X73687Y416526D01*
X72115Y415875D01*
X70447Y415543D01*
X63753Y415543D01*
G37*
%LPD*%
%LPC*%
G36*
X56553Y415543D02*
X56553Y415543D01*
X54885Y415875D01*
X53313Y416526D01*
X51899Y417471D01*
X50695Y418675D01*
X49750Y420089D01*
X49099Y421661D01*
X48767Y423329D01*
X48767Y423927D01*
X63247Y423927D01*
X63247Y415543D01*
X56553Y415543D01*
G37*
%LPD*%
%LPC*%
G36*
X56553Y491743D02*
X56553Y491743D01*
X54885Y492075D01*
X53313Y492726D01*
X51899Y493671D01*
X50695Y494875D01*
X49750Y496289D01*
X49099Y497861D01*
X48767Y499529D01*
X48767Y500127D01*
X63247Y500127D01*
X63247Y491743D01*
X56553Y491743D01*
G37*
%LPD*%
%LPC*%
G36*
X82853Y513233D02*
X82853Y513233D01*
X82853Y523521D01*
X90435Y523521D01*
X91081Y523348D01*
X91660Y523013D01*
X92133Y522540D01*
X92468Y521961D01*
X92641Y521315D01*
X92641Y513233D01*
X82853Y513233D01*
G37*
%LPD*%
%LPC*%
G36*
X82853Y502439D02*
X82853Y502439D01*
X82853Y512727D01*
X92641Y512727D01*
X92641Y504645D01*
X92468Y503999D01*
X92133Y503420D01*
X91660Y502947D01*
X91081Y502612D01*
X90435Y502439D01*
X82853Y502439D01*
G37*
%LPD*%
%LPC*%
G36*
X45973Y167893D02*
X45973Y167893D01*
X45973Y178181D01*
X53055Y178181D01*
X53701Y178008D01*
X54280Y177673D01*
X54753Y177200D01*
X55088Y176621D01*
X55261Y175975D01*
X55261Y167893D01*
X45973Y167893D01*
G37*
%LPD*%
%LPC*%
G36*
X36179Y167893D02*
X36179Y167893D01*
X36179Y175975D01*
X36352Y176621D01*
X36687Y177200D01*
X37160Y177673D01*
X37739Y178008D01*
X38385Y178181D01*
X45467Y178181D01*
X45467Y167893D01*
X36179Y167893D01*
G37*
%LPD*%
%LPC*%
G36*
X45973Y157099D02*
X45973Y157099D01*
X45973Y167387D01*
X55261Y167387D01*
X55261Y159305D01*
X55088Y158659D01*
X54753Y158080D01*
X54280Y157607D01*
X53701Y157272D01*
X53055Y157099D01*
X45973Y157099D01*
G37*
%LPD*%
%LPC*%
G36*
X38385Y157099D02*
X38385Y157099D01*
X37739Y157272D01*
X37160Y157607D01*
X36687Y158080D01*
X36352Y158659D01*
X36179Y159305D01*
X36179Y167387D01*
X45467Y167387D01*
X45467Y157099D01*
X38385Y157099D01*
G37*
%LPD*%
%LPC*%
G36*
X175513Y554633D02*
X175513Y554633D01*
X175513Y563421D01*
X183095Y563421D01*
X183741Y563248D01*
X184320Y562913D01*
X184793Y562440D01*
X185128Y561861D01*
X185301Y561215D01*
X185301Y554633D01*
X175513Y554633D01*
G37*
%LPD*%
%LPC*%
G36*
X256793Y501293D02*
X256793Y501293D01*
X256793Y510081D01*
X264375Y510081D01*
X265021Y509908D01*
X265600Y509573D01*
X266073Y509100D01*
X266408Y508521D01*
X266581Y507875D01*
X266581Y501293D01*
X256793Y501293D01*
G37*
%LPD*%
%LPC*%
G36*
X604773Y402233D02*
X604773Y402233D01*
X604773Y411021D01*
X612355Y411021D01*
X613001Y410848D01*
X613580Y410513D01*
X614053Y410040D01*
X614388Y409461D01*
X614561Y408815D01*
X614561Y402233D01*
X604773Y402233D01*
G37*
%LPD*%
%LPC*%
G36*
X602233Y277773D02*
X602233Y277773D01*
X602233Y286561D01*
X609815Y286561D01*
X610461Y286388D01*
X611040Y286053D01*
X611513Y285580D01*
X611848Y285001D01*
X612021Y284355D01*
X612021Y277773D01*
X602233Y277773D01*
G37*
%LPD*%
%LPC*%
G36*
X259333Y322173D02*
X259333Y322173D01*
X259333Y330961D01*
X266915Y330961D01*
X267561Y330788D01*
X268140Y330453D01*
X268613Y329980D01*
X268948Y329401D01*
X269121Y328755D01*
X269121Y322173D01*
X259333Y322173D01*
G37*
%LPD*%
%LPC*%
G36*
X553313Y599693D02*
X553313Y599693D01*
X553313Y609481D01*
X559895Y609481D01*
X560541Y609308D01*
X561120Y608973D01*
X561593Y608500D01*
X561928Y607921D01*
X562101Y607275D01*
X562101Y599693D01*
X553313Y599693D01*
G37*
%LPD*%
%LPC*%
G36*
X544019Y599693D02*
X544019Y599693D01*
X544019Y607275D01*
X544192Y607921D01*
X544527Y608500D01*
X545000Y608973D01*
X545579Y609308D01*
X546225Y609481D01*
X552807Y609481D01*
X552807Y599693D01*
X544019Y599693D01*
G37*
%LPD*%
%LPC*%
G36*
X553313Y589399D02*
X553313Y589399D01*
X553313Y599187D01*
X562101Y599187D01*
X562101Y591605D01*
X561928Y590959D01*
X561593Y590380D01*
X561120Y589907D01*
X560541Y589572D01*
X559895Y589399D01*
X553313Y589399D01*
G37*
%LPD*%
%LPC*%
G36*
X165219Y554633D02*
X165219Y554633D01*
X165219Y561215D01*
X165392Y561861D01*
X165727Y562440D01*
X166200Y562913D01*
X166779Y563248D01*
X167425Y563421D01*
X175007Y563421D01*
X175007Y554633D01*
X165219Y554633D01*
G37*
%LPD*%
%LPC*%
G36*
X246499Y501293D02*
X246499Y501293D01*
X246499Y507875D01*
X246672Y508521D01*
X247007Y509100D01*
X247480Y509573D01*
X248059Y509908D01*
X248705Y510081D01*
X256287Y510081D01*
X256287Y501293D01*
X246499Y501293D01*
G37*
%LPD*%
%LPC*%
G36*
X594479Y402233D02*
X594479Y402233D01*
X594479Y408815D01*
X594652Y409461D01*
X594987Y410040D01*
X595460Y410513D01*
X596039Y410848D01*
X596685Y411021D01*
X604267Y411021D01*
X604267Y402233D01*
X594479Y402233D01*
G37*
%LPD*%
%LPC*%
G36*
X591939Y277773D02*
X591939Y277773D01*
X591939Y284355D01*
X592112Y285001D01*
X592447Y285580D01*
X592920Y286053D01*
X593499Y286388D01*
X594145Y286561D01*
X601727Y286561D01*
X601727Y277773D01*
X591939Y277773D01*
G37*
%LPD*%
%LPC*%
G36*
X249039Y322173D02*
X249039Y322173D01*
X249039Y328755D01*
X249212Y329401D01*
X249547Y329980D01*
X250020Y330453D01*
X250599Y330788D01*
X251245Y330961D01*
X258827Y330961D01*
X258827Y322173D01*
X249039Y322173D01*
G37*
%LPD*%
%LPC*%
G36*
X259333Y312879D02*
X259333Y312879D01*
X259333Y321667D01*
X269121Y321667D01*
X269121Y315085D01*
X268948Y314439D01*
X268613Y313860D01*
X268140Y313387D01*
X267561Y313052D01*
X266915Y312879D01*
X259333Y312879D01*
G37*
%LPD*%
%LPC*%
G36*
X604773Y392939D02*
X604773Y392939D01*
X604773Y401727D01*
X614561Y401727D01*
X614561Y395145D01*
X614388Y394499D01*
X614053Y393920D01*
X613580Y393447D01*
X613001Y393112D01*
X612355Y392939D01*
X604773Y392939D01*
G37*
%LPD*%
%LPC*%
G36*
X602233Y268479D02*
X602233Y268479D01*
X602233Y277267D01*
X612021Y277267D01*
X612021Y270685D01*
X611848Y270039D01*
X611513Y269460D01*
X611040Y268987D01*
X610461Y268652D01*
X609815Y268479D01*
X602233Y268479D01*
G37*
%LPD*%
%LPC*%
G36*
X175513Y545339D02*
X175513Y545339D01*
X175513Y554127D01*
X185301Y554127D01*
X185301Y547545D01*
X185128Y546899D01*
X184793Y546320D01*
X184320Y545847D01*
X183741Y545512D01*
X183095Y545339D01*
X175513Y545339D01*
G37*
%LPD*%
%LPC*%
G36*
X256793Y491999D02*
X256793Y491999D01*
X256793Y500787D01*
X266581Y500787D01*
X266581Y494205D01*
X266408Y493559D01*
X266073Y492980D01*
X265600Y492507D01*
X265021Y492172D01*
X264375Y491999D01*
X256793Y491999D01*
G37*
%LPD*%
%LPC*%
G36*
X596685Y392939D02*
X596685Y392939D01*
X596039Y393112D01*
X595460Y393447D01*
X594987Y393920D01*
X594652Y394499D01*
X594479Y395145D01*
X594479Y401727D01*
X604267Y401727D01*
X604267Y392939D01*
X596685Y392939D01*
G37*
%LPD*%
%LPC*%
G36*
X167425Y545339D02*
X167425Y545339D01*
X166779Y545512D01*
X166200Y545847D01*
X165727Y546320D01*
X165392Y546899D01*
X165219Y547545D01*
X165219Y554127D01*
X175007Y554127D01*
X175007Y545339D01*
X167425Y545339D01*
G37*
%LPD*%
%LPC*%
G36*
X248705Y491999D02*
X248705Y491999D01*
X248059Y492172D01*
X247480Y492507D01*
X247007Y492980D01*
X246672Y493559D01*
X246499Y494205D01*
X246499Y500787D01*
X256287Y500787D01*
X256287Y491999D01*
X248705Y491999D01*
G37*
%LPD*%
%LPC*%
G36*
X251245Y312879D02*
X251245Y312879D01*
X250599Y313052D01*
X250020Y313387D01*
X249547Y313860D01*
X249212Y314439D01*
X249039Y315085D01*
X249039Y321667D01*
X258827Y321667D01*
X258827Y312879D01*
X251245Y312879D01*
G37*
%LPD*%
%LPC*%
G36*
X594145Y268479D02*
X594145Y268479D01*
X593499Y268652D01*
X592920Y268987D01*
X592447Y269460D01*
X592112Y270039D01*
X591939Y270685D01*
X591939Y277267D01*
X601727Y277267D01*
X601727Y268479D01*
X594145Y268479D01*
G37*
%LPD*%
%LPC*%
G36*
X546225Y589399D02*
X546225Y589399D01*
X545579Y589572D01*
X545000Y589907D01*
X544527Y590380D01*
X544192Y590959D01*
X544019Y591605D01*
X544019Y599187D01*
X552807Y599187D01*
X552807Y589399D01*
X546225Y589399D01*
G37*
%LPD*%
%LPC*%
G36*
X597153Y114553D02*
X597153Y114553D01*
X597153Y124461D01*
X601109Y124461D01*
X607061Y118509D01*
X607061Y114553D01*
X597153Y114553D01*
G37*
%LPD*%
%LPC*%
G36*
X612139Y114553D02*
X612139Y114553D01*
X612139Y118509D01*
X618091Y124461D01*
X622047Y124461D01*
X622047Y114553D01*
X612139Y114553D01*
G37*
%LPD*%
%LPC*%
G36*
X586739Y114553D02*
X586739Y114553D01*
X586739Y118509D01*
X592691Y124461D01*
X596647Y124461D01*
X596647Y114553D01*
X586739Y114553D01*
G37*
%LPD*%
%LPC*%
G36*
X307339Y89153D02*
X307339Y89153D01*
X307339Y93109D01*
X313291Y99061D01*
X317247Y99061D01*
X317247Y89153D01*
X307339Y89153D01*
G37*
%LPD*%
%LPC*%
G36*
X597153Y104139D02*
X597153Y104139D01*
X597153Y114047D01*
X607061Y114047D01*
X607061Y110091D01*
X601109Y104139D01*
X597153Y104139D01*
G37*
%LPD*%
%LPC*%
G36*
X592691Y104139D02*
X592691Y104139D01*
X586739Y110091D01*
X586739Y114047D01*
X596647Y114047D01*
X596647Y104139D01*
X592691Y104139D01*
G37*
%LPD*%
%LPC*%
G36*
X313291Y78739D02*
X313291Y78739D01*
X307339Y84691D01*
X307339Y88647D01*
X317247Y88647D01*
X317247Y78739D01*
X313291Y78739D01*
G37*
%LPD*%
%LPC*%
G36*
X618091Y104139D02*
X618091Y104139D01*
X612139Y110091D01*
X612139Y114047D01*
X622047Y114047D01*
X622047Y104139D01*
X618091Y104139D01*
G37*
%LPD*%
%LPC*%
G36*
X305053Y475233D02*
X305053Y475233D01*
X305053Y483617D01*
X308377Y483617D01*
X313437Y478557D01*
X313437Y475233D01*
X305053Y475233D01*
G37*
%LPD*%
%LPC*%
G36*
X533653Y399033D02*
X533653Y399033D01*
X533653Y407417D01*
X536977Y407417D01*
X542037Y402357D01*
X542037Y399033D01*
X533653Y399033D01*
G37*
%LPD*%
%LPC*%
G36*
X381253Y526033D02*
X381253Y526033D01*
X381253Y534417D01*
X384577Y534417D01*
X389637Y529357D01*
X389637Y526033D01*
X381253Y526033D01*
G37*
%LPD*%
%LPC*%
G36*
X355853Y526033D02*
X355853Y526033D01*
X355853Y534417D01*
X359177Y534417D01*
X364237Y529357D01*
X364237Y526033D01*
X355853Y526033D01*
G37*
%LPD*%
%LPC*%
G36*
X381253Y551433D02*
X381253Y551433D01*
X381253Y559817D01*
X384577Y559817D01*
X389637Y554757D01*
X389637Y551433D01*
X381253Y551433D01*
G37*
%LPD*%
%LPC*%
G36*
X330453Y424433D02*
X330453Y424433D01*
X330453Y432817D01*
X333777Y432817D01*
X338837Y427757D01*
X338837Y424433D01*
X330453Y424433D01*
G37*
%LPD*%
%LPC*%
G36*
X330453Y551433D02*
X330453Y551433D01*
X330453Y559817D01*
X333777Y559817D01*
X338837Y554757D01*
X338837Y551433D01*
X330453Y551433D01*
G37*
%LPD*%
%LPC*%
G36*
X305053Y500633D02*
X305053Y500633D01*
X305053Y509017D01*
X308377Y509017D01*
X313437Y503957D01*
X313437Y500633D01*
X305053Y500633D01*
G37*
%LPD*%
%LPC*%
G36*
X355853Y551433D02*
X355853Y551433D01*
X355853Y559817D01*
X359177Y559817D01*
X364237Y554757D01*
X364237Y551433D01*
X355853Y551433D01*
G37*
%LPD*%
%LPC*%
G36*
X508253Y551433D02*
X508253Y551433D01*
X508253Y559817D01*
X511577Y559817D01*
X516637Y554757D01*
X516637Y551433D01*
X508253Y551433D01*
G37*
%LPD*%
%LPC*%
G36*
X305053Y322833D02*
X305053Y322833D01*
X305053Y331217D01*
X308377Y331217D01*
X313437Y326157D01*
X313437Y322833D01*
X305053Y322833D01*
G37*
%LPD*%
%LPC*%
G36*
X355853Y322833D02*
X355853Y322833D01*
X355853Y331217D01*
X359177Y331217D01*
X364237Y326157D01*
X364237Y322833D01*
X355853Y322833D01*
G37*
%LPD*%
%LPC*%
G36*
X406653Y526033D02*
X406653Y526033D01*
X406653Y534417D01*
X409977Y534417D01*
X415037Y529357D01*
X415037Y526033D01*
X406653Y526033D01*
G37*
%LPD*%
%LPC*%
G36*
X296163Y475233D02*
X296163Y475233D01*
X296163Y478557D01*
X301223Y483617D01*
X304547Y483617D01*
X304547Y475233D01*
X296163Y475233D01*
G37*
%LPD*%
%LPC*%
G36*
X346963Y526033D02*
X346963Y526033D01*
X346963Y529357D01*
X352023Y534417D01*
X355347Y534417D01*
X355347Y526033D01*
X346963Y526033D01*
G37*
%LPD*%
%LPC*%
G36*
X524763Y399033D02*
X524763Y399033D01*
X524763Y402357D01*
X529823Y407417D01*
X533147Y407417D01*
X533147Y399033D01*
X524763Y399033D01*
G37*
%LPD*%
%LPC*%
G36*
X508253Y542543D02*
X508253Y542543D01*
X508253Y550927D01*
X516637Y550927D01*
X516637Y547603D01*
X511577Y542543D01*
X508253Y542543D01*
G37*
%LPD*%
%LPC*%
G36*
X533653Y390143D02*
X533653Y390143D01*
X533653Y398527D01*
X542037Y398527D01*
X542037Y395203D01*
X536977Y390143D01*
X533653Y390143D01*
G37*
%LPD*%
%LPC*%
G36*
X321563Y424433D02*
X321563Y424433D01*
X321563Y427757D01*
X326623Y432817D01*
X329947Y432817D01*
X329947Y424433D01*
X321563Y424433D01*
G37*
%LPD*%
%LPC*%
G36*
X321563Y551433D02*
X321563Y551433D01*
X321563Y554757D01*
X326623Y559817D01*
X329947Y559817D01*
X329947Y551433D01*
X321563Y551433D01*
G37*
%LPD*%
%LPC*%
G36*
X346963Y551433D02*
X346963Y551433D01*
X346963Y554757D01*
X352023Y559817D01*
X355347Y559817D01*
X355347Y551433D01*
X346963Y551433D01*
G37*
%LPD*%
%LPC*%
G36*
X499363Y551433D02*
X499363Y551433D01*
X499363Y554757D01*
X504423Y559817D01*
X507747Y559817D01*
X507747Y551433D01*
X499363Y551433D01*
G37*
%LPD*%
%LPC*%
G36*
X372363Y551433D02*
X372363Y551433D01*
X372363Y554757D01*
X377423Y559817D01*
X380747Y559817D01*
X380747Y551433D01*
X372363Y551433D01*
G37*
%LPD*%
%LPC*%
G36*
X296163Y500633D02*
X296163Y500633D01*
X296163Y503957D01*
X301223Y509017D01*
X304547Y509017D01*
X304547Y500633D01*
X296163Y500633D01*
G37*
%LPD*%
%LPC*%
G36*
X346963Y322833D02*
X346963Y322833D01*
X346963Y326157D01*
X352023Y331217D01*
X355347Y331217D01*
X355347Y322833D01*
X346963Y322833D01*
G37*
%LPD*%
%LPC*%
G36*
X372363Y526033D02*
X372363Y526033D01*
X372363Y529357D01*
X377423Y534417D01*
X380747Y534417D01*
X380747Y526033D01*
X372363Y526033D01*
G37*
%LPD*%
%LPC*%
G36*
X330453Y415543D02*
X330453Y415543D01*
X330453Y423927D01*
X338837Y423927D01*
X338837Y420603D01*
X333777Y415543D01*
X330453Y415543D01*
G37*
%LPD*%
%LPC*%
G36*
X305053Y491743D02*
X305053Y491743D01*
X305053Y500127D01*
X313437Y500127D01*
X313437Y496803D01*
X308377Y491743D01*
X305053Y491743D01*
G37*
%LPD*%
%LPC*%
G36*
X305053Y466343D02*
X305053Y466343D01*
X305053Y474727D01*
X313437Y474727D01*
X313437Y471403D01*
X308377Y466343D01*
X305053Y466343D01*
G37*
%LPD*%
%LPC*%
G36*
X355853Y542543D02*
X355853Y542543D01*
X355853Y550927D01*
X364237Y550927D01*
X364237Y547603D01*
X359177Y542543D01*
X355853Y542543D01*
G37*
%LPD*%
%LPC*%
G36*
X355853Y517143D02*
X355853Y517143D01*
X355853Y525527D01*
X364237Y525527D01*
X364237Y522203D01*
X359177Y517143D01*
X355853Y517143D01*
G37*
%LPD*%
%LPC*%
G36*
X305053Y313943D02*
X305053Y313943D01*
X305053Y322327D01*
X313437Y322327D01*
X313437Y319003D01*
X308377Y313943D01*
X305053Y313943D01*
G37*
%LPD*%
%LPC*%
G36*
X381253Y517143D02*
X381253Y517143D01*
X381253Y525527D01*
X389637Y525527D01*
X389637Y522203D01*
X384577Y517143D01*
X381253Y517143D01*
G37*
%LPD*%
%LPC*%
G36*
X381253Y542543D02*
X381253Y542543D01*
X381253Y550927D01*
X389637Y550927D01*
X389637Y547603D01*
X384577Y542543D01*
X381253Y542543D01*
G37*
%LPD*%
%LPC*%
G36*
X355853Y313943D02*
X355853Y313943D01*
X355853Y322327D01*
X364237Y322327D01*
X364237Y319003D01*
X359177Y313943D01*
X355853Y313943D01*
G37*
%LPD*%
%LPC*%
G36*
X330453Y542543D02*
X330453Y542543D01*
X330453Y550927D01*
X338837Y550927D01*
X338837Y547603D01*
X333777Y542543D01*
X330453Y542543D01*
G37*
%LPD*%
%LPC*%
G36*
X406653Y517143D02*
X406653Y517143D01*
X406653Y525527D01*
X415037Y525527D01*
X415037Y522203D01*
X409977Y517143D01*
X406653Y517143D01*
G37*
%LPD*%
%LPC*%
G36*
X301223Y491743D02*
X301223Y491743D01*
X296163Y496803D01*
X296163Y500127D01*
X304547Y500127D01*
X304547Y491743D01*
X301223Y491743D01*
G37*
%LPD*%
%LPC*%
G36*
X504423Y542543D02*
X504423Y542543D01*
X499363Y547603D01*
X499363Y550927D01*
X507747Y550927D01*
X507747Y542543D01*
X504423Y542543D01*
G37*
%LPD*%
%LPC*%
G36*
X352023Y517143D02*
X352023Y517143D01*
X346963Y522203D01*
X346963Y525527D01*
X355347Y525527D01*
X355347Y517143D01*
X352023Y517143D01*
G37*
%LPD*%
%LPC*%
G36*
X529823Y390143D02*
X529823Y390143D01*
X524763Y395203D01*
X524763Y398527D01*
X533147Y398527D01*
X533147Y390143D01*
X529823Y390143D01*
G37*
%LPD*%
%LPC*%
G36*
X326623Y542543D02*
X326623Y542543D01*
X321563Y547603D01*
X321563Y550927D01*
X329947Y550927D01*
X329947Y542543D01*
X326623Y542543D01*
G37*
%LPD*%
%LPC*%
G36*
X352023Y542543D02*
X352023Y542543D01*
X346963Y547603D01*
X346963Y550927D01*
X355347Y550927D01*
X355347Y542543D01*
X352023Y542543D01*
G37*
%LPD*%
%LPC*%
G36*
X301223Y466343D02*
X301223Y466343D01*
X296163Y471403D01*
X296163Y474727D01*
X304547Y474727D01*
X304547Y466343D01*
X301223Y466343D01*
G37*
%LPD*%
%LPC*%
G36*
X377423Y542543D02*
X377423Y542543D01*
X372363Y547603D01*
X372363Y550927D01*
X380747Y550927D01*
X380747Y542543D01*
X377423Y542543D01*
G37*
%LPD*%
%LPC*%
G36*
X326623Y415543D02*
X326623Y415543D01*
X321563Y420603D01*
X321563Y423927D01*
X329947Y423927D01*
X329947Y415543D01*
X326623Y415543D01*
G37*
%LPD*%
%LPC*%
G36*
X352023Y313943D02*
X352023Y313943D01*
X346963Y319003D01*
X346963Y322327D01*
X355347Y322327D01*
X355347Y313943D01*
X352023Y313943D01*
G37*
%LPD*%
%LPC*%
G36*
X377423Y517143D02*
X377423Y517143D01*
X372363Y522203D01*
X372363Y525527D01*
X380747Y525527D01*
X380747Y517143D01*
X377423Y517143D01*
G37*
%LPD*%
%LPC*%
G36*
X533399Y398779D02*
X533399Y398779D01*
X533399Y398781D01*
X533401Y398781D01*
X533401Y398779D01*
X533399Y398779D01*
G37*
%LPD*%
%LPC*%
G36*
X304799Y500379D02*
X304799Y500379D01*
X304799Y500381D01*
X304801Y500381D01*
X304801Y500379D01*
X304799Y500379D01*
G37*
%LPD*%
%LPC*%
G36*
X63499Y500379D02*
X63499Y500379D01*
X63499Y500381D01*
X63501Y500381D01*
X63501Y500379D01*
X63499Y500379D01*
G37*
%LPD*%
%LPC*%
G36*
X355599Y322579D02*
X355599Y322579D01*
X355599Y322581D01*
X355601Y322581D01*
X355601Y322579D01*
X355599Y322579D01*
G37*
%LPD*%
%LPC*%
G36*
X507999Y551179D02*
X507999Y551179D01*
X507999Y551181D01*
X508001Y551181D01*
X508001Y551179D01*
X507999Y551179D01*
G37*
%LPD*%
%LPC*%
G36*
X355599Y525779D02*
X355599Y525779D01*
X355599Y525781D01*
X355601Y525781D01*
X355601Y525779D01*
X355599Y525779D01*
G37*
%LPD*%
%LPC*%
G36*
X380999Y551179D02*
X380999Y551179D01*
X380999Y551181D01*
X381001Y551181D01*
X381001Y551179D01*
X380999Y551179D01*
G37*
%LPD*%
%LPC*%
G36*
X596899Y114299D02*
X596899Y114299D01*
X596899Y114301D01*
X596901Y114301D01*
X596901Y114299D01*
X596899Y114299D01*
G37*
%LPD*%
%LPC*%
G36*
X330199Y551179D02*
X330199Y551179D01*
X330199Y551181D01*
X330201Y551181D01*
X330201Y551179D01*
X330199Y551179D01*
G37*
%LPD*%
%LPC*%
G36*
X355599Y551179D02*
X355599Y551179D01*
X355599Y551181D01*
X355601Y551181D01*
X355601Y551179D01*
X355599Y551179D01*
G37*
%LPD*%
%LPC*%
G36*
X63499Y424179D02*
X63499Y424179D01*
X63499Y424181D01*
X63501Y424181D01*
X63501Y424179D01*
X63499Y424179D01*
G37*
%LPD*%
%LPC*%
G36*
X304799Y474979D02*
X304799Y474979D01*
X304799Y474981D01*
X304801Y474981D01*
X304801Y474979D01*
X304799Y474979D01*
G37*
%LPD*%
%LPC*%
G36*
X380999Y525779D02*
X380999Y525779D01*
X380999Y525781D01*
X381001Y525781D01*
X381001Y525779D01*
X380999Y525779D01*
G37*
%LPD*%
%LPC*%
G36*
X330199Y424179D02*
X330199Y424179D01*
X330199Y424181D01*
X330201Y424181D01*
X330201Y424179D01*
X330199Y424179D01*
G37*
%LPD*%
%LPC*%
G36*
X604519Y401979D02*
X604519Y401979D01*
X604519Y401981D01*
X604521Y401981D01*
X604521Y401979D01*
X604519Y401979D01*
G37*
%LPD*%
%LPC*%
G36*
X256539Y501039D02*
X256539Y501039D01*
X256539Y501041D01*
X256541Y501041D01*
X256541Y501039D01*
X256539Y501039D01*
G37*
%LPD*%
%LPC*%
G36*
X175259Y554379D02*
X175259Y554379D01*
X175259Y554381D01*
X175261Y554381D01*
X175261Y554379D01*
X175259Y554379D01*
G37*
%LPD*%
%LPC*%
G36*
X259079Y321919D02*
X259079Y321919D01*
X259079Y321921D01*
X259081Y321921D01*
X259081Y321919D01*
X259079Y321919D01*
G37*
%LPD*%
%LPC*%
G36*
X601979Y277519D02*
X601979Y277519D01*
X601979Y277521D01*
X601981Y277521D01*
X601981Y277519D01*
X601979Y277519D01*
G37*
%LPD*%
%LPC*%
G36*
X82599Y512979D02*
X82599Y512979D01*
X82599Y512981D01*
X82601Y512981D01*
X82601Y512979D01*
X82599Y512979D01*
G37*
%LPD*%
%LPC*%
G36*
X553059Y599439D02*
X553059Y599439D01*
X553059Y599441D01*
X553061Y599441D01*
X553061Y599439D01*
X553059Y599439D01*
G37*
%LPD*%
%LPC*%
G36*
X45719Y167639D02*
X45719Y167639D01*
X45719Y167641D01*
X45721Y167641D01*
X45721Y167639D01*
X45719Y167639D01*
G37*
%LPD*%
D10*
X520700Y88900D03*
X495300Y88900D03*
X469900Y88900D03*
X444500Y88900D03*
X419100Y88900D03*
X393700Y88900D03*
X368300Y88900D03*
X342900Y88900D03*
X317500Y88900D03*
X292100Y88900D03*
X266700Y88900D03*
X241300Y88900D03*
X215900Y88900D03*
X190500Y88900D03*
X165100Y88900D03*
X139700Y88900D03*
X114300Y88900D03*
X88900Y88900D03*
X63500Y88900D03*
X38100Y88900D03*
X38100Y114300D03*
X63500Y114300D03*
X88900Y114300D03*
X114300Y114300D03*
X139700Y114300D03*
X165100Y114300D03*
X190500Y114300D03*
X215900Y114300D03*
X241300Y114300D03*
X266700Y114300D03*
X292100Y114300D03*
X317500Y114300D03*
X342900Y114300D03*
X368300Y114300D03*
X393700Y114300D03*
X419100Y114300D03*
X444500Y114300D03*
X469900Y114300D03*
X495300Y114300D03*
X520700Y114300D03*
X647700Y88900D03*
X622300Y88900D03*
X596900Y88900D03*
X571500Y88900D03*
X546100Y88900D03*
X546100Y114300D03*
X571500Y114300D03*
X596900Y114300D03*
X622300Y114300D03*
X647700Y114300D03*
D11*
X431800Y551180D03*
D12*
X431800Y525780D03*
X406400Y551180D03*
X406400Y525780D03*
X381000Y551180D03*
X381000Y525780D03*
X355600Y551180D03*
X355600Y525780D03*
X330200Y551180D03*
X304800Y525780D03*
X330200Y525780D03*
X304800Y500380D03*
X330200Y500380D03*
X304800Y474980D03*
X330200Y474980D03*
X304800Y449580D03*
X330200Y449580D03*
X304800Y424180D03*
X330200Y424180D03*
X304800Y398780D03*
X330200Y398780D03*
X304800Y373380D03*
X330200Y373380D03*
X304800Y347980D03*
X330200Y347980D03*
X304800Y322580D03*
X330200Y297180D03*
X330200Y322580D03*
X355600Y297180D03*
X355600Y322580D03*
X381000Y297180D03*
X381000Y322580D03*
X406400Y297180D03*
X406400Y322580D03*
X431800Y297180D03*
X431800Y322580D03*
X457200Y297180D03*
X457200Y322580D03*
X482600Y297180D03*
X482600Y322580D03*
X508000Y297180D03*
X508000Y322580D03*
X533400Y297180D03*
X558800Y322580D03*
X533400Y322580D03*
X558800Y347980D03*
X533400Y347980D03*
X558800Y373380D03*
X533400Y373380D03*
X558800Y398780D03*
X533400Y398780D03*
X558800Y424180D03*
X533400Y424180D03*
X558800Y449580D03*
X533400Y449580D03*
X558800Y474980D03*
X533400Y474980D03*
X558800Y500380D03*
X533400Y500380D03*
X558800Y525780D03*
X533400Y551180D03*
X533400Y525780D03*
X508000Y551180D03*
X508000Y525780D03*
X482600Y551180D03*
X482600Y525780D03*
X457200Y551180D03*
X457200Y525780D03*
D13*
X45720Y137640D03*
X45720Y167640D03*
D14*
X256540Y520040D03*
X256540Y501040D03*
X259080Y302920D03*
X259080Y321920D03*
X601980Y296520D03*
X601980Y277520D03*
X604520Y420980D03*
X604520Y401980D03*
D15*
X534060Y599440D03*
X553060Y599440D03*
D14*
X175260Y573380D03*
X175260Y554380D03*
X175260Y517500D03*
X175260Y498500D03*
D16*
X82600Y563980D03*
X82600Y512980D03*
X120600Y512980D03*
X120600Y563980D03*
D17*
X69596Y576580D02*
X57404Y576580D01*
X57404Y551180D02*
X69596Y551180D01*
X69596Y474980D02*
X57404Y474980D01*
X57404Y449580D02*
X69596Y449580D01*
X69596Y525780D02*
X57404Y525780D01*
X57404Y500380D02*
X69596Y500380D01*
X69596Y424180D02*
X57404Y424180D01*
X133604Y424180D02*
X145796Y424180D01*
X145796Y449580D02*
X133604Y449580D01*
X133604Y474980D02*
X145796Y474980D01*
X145796Y500380D02*
X133604Y500380D01*
X133604Y525780D02*
X145796Y525780D01*
X145796Y551180D02*
X133604Y551180D01*
X133604Y576580D02*
X145796Y576580D01*
D18*
X200660Y513080D02*
X215900Y513080D01*
X215900Y487680D02*
X200660Y487680D01*
X200660Y462280D02*
X215900Y462280D01*
D19*
X226060Y68580D03*
X254000Y68580D03*
D20*
X120600Y563980D02*
X82600Y563980D01*
X120600Y563980D02*
X127100Y563980D01*
X139700Y576580D01*
X172060Y576580D01*
X175260Y573380D01*
D21*
X256540Y520040D02*
X262280Y525780D01*
X304800Y525780D01*
X241960Y573380D02*
X175260Y573380D01*
X241960Y573380D02*
X256540Y558800D01*
X256540Y520040D01*
X533484Y596966D02*
X534060Y599440D01*
X533484Y596966D02*
X533400Y596240D01*
X533400Y551180D01*
X533400Y424180D02*
X558800Y424180D01*
X601320Y424180D01*
X604520Y420980D01*
D22*
X38100Y128297D02*
X38100Y114300D01*
X38100Y128297D02*
X45720Y137640D01*
D23*
X259080Y284480D03*
D24*
X259080Y302920D01*
D23*
X581660Y297180D03*
D24*
X601320Y297180D01*
X601980Y296520D01*
D20*
X133200Y500380D02*
X120600Y512980D01*
X133200Y500380D02*
X139700Y500380D01*
X172720Y495960D02*
X175260Y498500D01*
X162560Y424180D02*
X139700Y424180D01*
X162560Y424180D02*
X162560Y495960D01*
X158140Y500380D02*
X139700Y500380D01*
X158140Y500380D02*
X162560Y495960D01*
X172720Y495960D01*
D23*
X337820Y73660D03*
D20*
X332740Y78740D01*
X332740Y241300D02*
X355600Y264160D01*
X355600Y297180D01*
X332740Y241300D02*
X332740Y78740D01*
X558800Y127000D02*
X558800Y322580D01*
X558800Y127000D02*
X546100Y114300D01*
X472440Y541020D02*
X482600Y551180D01*
X472440Y541020D02*
X472440Y363220D01*
X480060Y355600D01*
X480060Y337820D01*
D23*
X480060Y337820D03*
D20*
X63500Y335280D02*
X63500Y114300D01*
D23*
X63500Y335280D03*
D20*
X88900Y347980D02*
X88900Y114300D01*
D23*
X88900Y347980D03*
D20*
X114300Y360680D02*
X114300Y114300D01*
D23*
X114300Y360680D03*
D20*
X139700Y373380D02*
X139700Y114300D01*
D23*
X139700Y373380D03*
X327660Y43180D03*
D20*
X327660Y276860D01*
X317500Y287020D01*
X317500Y386080D01*
X330200Y398780D01*
X523240Y312420D02*
X533400Y322580D01*
X523240Y312420D02*
X523240Y142240D01*
D23*
X523240Y142240D03*
D20*
X490220Y518160D02*
X482600Y525780D01*
X490220Y518160D02*
X490220Y332740D01*
D23*
X490220Y332740D03*
D20*
X495300Y248920D02*
X495300Y114300D01*
X495300Y248920D02*
X497840Y251460D01*
D23*
X497840Y251460D03*
X548640Y251460D03*
D20*
X548640Y337820D01*
X558800Y347980D01*
X467360Y541020D02*
X457200Y551180D01*
X467360Y360680D02*
X469900Y358140D01*
D23*
X469900Y358140D03*
D20*
X467360Y360680D02*
X467360Y541020D01*
X469900Y238760D02*
X469900Y114300D01*
X469900Y238760D02*
X490220Y259080D01*
D23*
X490220Y259080D03*
X541020Y259080D03*
D20*
X543560Y261620D02*
X543560Y337820D01*
X543560Y261620D02*
X541020Y259080D01*
X543560Y337820D02*
X533400Y347980D01*
X457200Y358140D02*
X457200Y525780D01*
X457200Y358140D02*
X467360Y347980D01*
D23*
X467360Y347980D03*
D20*
X444500Y226060D02*
X444500Y114300D01*
X492760Y274320D02*
X492760Y304800D01*
X487680Y309880D01*
X482600Y309880D01*
X472440Y320040D01*
X472440Y335280D01*
X492760Y274320D02*
X444500Y226060D01*
X431800Y538480D02*
X431800Y551180D01*
X431800Y538480D02*
X452120Y518160D01*
X452120Y363220D02*
X452120Y355600D01*
X452120Y363220D02*
X452120Y518160D01*
X452120Y355600D02*
X472440Y335280D01*
D23*
X452120Y363220D03*
D20*
X419100Y233680D02*
X419100Y114300D01*
X419100Y233680D02*
X467360Y281940D01*
X467360Y302260D01*
X457200Y312420D01*
X454660Y312420D01*
X447040Y320040D01*
X447040Y335280D02*
X436880Y345440D01*
X436880Y373380D02*
X436880Y520700D01*
X436880Y373380D02*
X436880Y345440D01*
X436880Y520700D02*
X431800Y525780D01*
X447040Y335280D02*
X447040Y320040D01*
D23*
X436880Y373380D03*
D20*
X393700Y241300D02*
X393700Y114300D01*
X393700Y241300D02*
X441960Y289560D01*
X441960Y299720D01*
X421640Y320040D01*
X421640Y492760D02*
X396240Y518160D01*
X396240Y541020D01*
X406400Y551180D01*
X421640Y386080D02*
X421640Y320040D01*
X421640Y386080D02*
X421640Y492760D01*
D23*
X421640Y386080D03*
D20*
X368300Y248920D02*
X368300Y114300D01*
D23*
X368300Y248920D03*
X279400Y38100D03*
D20*
X279400Y447040D01*
X294640Y462280D01*
X314960Y462280D01*
X320040Y467360D01*
X320040Y490220D01*
X330200Y500380D01*
D23*
X304800Y50800D03*
D20*
X304800Y299720D01*
X294640Y309880D01*
X294640Y388620D01*
X304800Y398780D01*
X208280Y462280D02*
X203200Y457200D01*
D23*
X203200Y55880D03*
D20*
X203200Y457200D01*
D23*
X342900Y137160D03*
D20*
X342900Y241300D01*
X393700Y292100D01*
X393700Y309880D01*
X381000Y322580D01*
X508000Y322580D02*
X518160Y312420D01*
X518160Y139700D01*
X535940Y121920D02*
X535940Y99060D01*
X546100Y88900D01*
X535940Y121920D02*
X518160Y139700D01*
X508000Y322580D02*
X508000Y525780D01*
X482600Y322580D02*
X497840Y307340D01*
X497840Y279400D02*
X508000Y269240D01*
X508000Y101600D01*
X520700Y88900D01*
X497840Y279400D02*
X497840Y307340D01*
X482600Y322580D02*
X482600Y330200D01*
X485140Y332740D01*
D23*
X485140Y513080D03*
D20*
X485140Y332740D01*
X482600Y297180D02*
X482600Y274320D01*
X434340Y226060D01*
X434340Y109220D01*
X439420Y104140D01*
X482600Y104140D01*
X495300Y91440D01*
X495300Y88900D01*
X482600Y297180D02*
X480060Y299720D01*
X480060Y307340D01*
X467360Y320040D01*
X467360Y332740D02*
X447040Y353060D01*
X447040Y508000D01*
D23*
X447040Y508000D03*
D20*
X467360Y332740D02*
X467360Y320040D01*
X457200Y322580D02*
X472440Y307340D01*
X472440Y276860D01*
X424180Y228600D01*
X424180Y132080D01*
X429260Y127000D01*
X429260Y109220D01*
X459740Y99060D02*
X469900Y88900D01*
X439420Y99060D02*
X429260Y109220D01*
X439420Y99060D02*
X459740Y99060D01*
X457200Y322580D02*
X452120Y327660D01*
X452120Y337820D01*
X441960Y347980D01*
X441960Y500380D01*
D23*
X441960Y500380D03*
D20*
X457200Y297180D02*
X457200Y279400D01*
X408940Y231140D01*
X408940Y109220D01*
X419100Y99060D01*
X429260Y99060D01*
X439420Y88900D02*
X444500Y88900D01*
X439420Y88900D02*
X429260Y99060D01*
X457200Y297180D02*
X454660Y299720D01*
X454660Y304800D01*
X441960Y317500D01*
X441960Y332740D01*
X431800Y342900D01*
X431800Y487680D01*
D23*
X431800Y487680D03*
D20*
X431800Y317500D02*
X447040Y302260D01*
X431800Y317500D02*
X431800Y322580D01*
X403860Y236220D02*
X403860Y104140D01*
X419100Y88900D01*
X447040Y279400D02*
X447040Y302260D01*
X447040Y279400D02*
X403860Y236220D01*
X431800Y322580D02*
X431800Y332740D01*
X426720Y337820D01*
X426720Y474980D01*
D23*
X426720Y474980D03*
D20*
X383540Y99060D02*
X393700Y88900D01*
X383540Y248920D02*
X431800Y297180D01*
X383540Y248920D02*
X383540Y99060D01*
X431800Y297180D02*
X424180Y304800D01*
X424180Y312420D02*
X416560Y320040D01*
D23*
X416560Y464820D03*
D20*
X424180Y312420D02*
X424180Y304800D01*
X416560Y320040D02*
X416560Y464820D01*
X378460Y99060D02*
X368300Y88900D01*
X378460Y99060D02*
X378460Y251460D01*
X416560Y289560D01*
X416560Y312420D01*
X406400Y322580D01*
X406400Y449580D01*
D23*
X406400Y449580D03*
D20*
X355600Y101600D02*
X342900Y88900D01*
X355600Y101600D02*
X355600Y246380D01*
X406400Y297180D01*
X401320Y302260D01*
X401320Y309880D01*
X396240Y314960D01*
X396240Y436880D01*
D23*
X396240Y436880D03*
D20*
X179680Y513080D02*
X175260Y517500D01*
X179680Y513080D02*
X208280Y513080D01*
M02*
