G04 EAGLE Gerber RS-274X export*
G75*
%MOMM*%
%FSLAX34Y34*%
%LPD*%
%IN*%
%IPPOS*%
%AMOC8*
5,1,8,0,0,1.08239X$1,22.5*%
G01*
%ADD10C,0.000000*%
%ADD11C,0.254000*%


D10*
X0Y0D02*
X686000Y0D01*
X686000Y120000D01*
X636000Y127620D01*
X636000Y300000D01*
X685800Y300000D01*
X686000Y650000D01*
X0Y650000D01*
X0Y300000D01*
X30000Y300000D01*
X30000Y127620D01*
X0Y120000D01*
X0Y0D01*
X320440Y607060D02*
X320448Y607674D01*
X320470Y608287D01*
X320508Y608899D01*
X320560Y609510D01*
X320628Y610120D01*
X320711Y610728D01*
X320808Y611334D01*
X320920Y611937D01*
X321047Y612538D01*
X321189Y613135D01*
X321346Y613728D01*
X321516Y614317D01*
X321702Y614902D01*
X321901Y615482D01*
X322115Y616057D01*
X322343Y616627D01*
X322585Y617191D01*
X322840Y617749D01*
X323109Y618300D01*
X323392Y618845D01*
X323688Y619382D01*
X323997Y619913D01*
X324319Y620435D01*
X324653Y620949D01*
X325000Y621455D01*
X325360Y621952D01*
X325731Y622441D01*
X326115Y622920D01*
X326510Y623389D01*
X326916Y623849D01*
X327334Y624299D01*
X327762Y624738D01*
X328201Y625166D01*
X328651Y625584D01*
X329111Y625990D01*
X329580Y626385D01*
X330059Y626769D01*
X330548Y627140D01*
X331045Y627500D01*
X331551Y627847D01*
X332065Y628181D01*
X332587Y628503D01*
X333118Y628812D01*
X333655Y629108D01*
X334200Y629391D01*
X334751Y629660D01*
X335309Y629915D01*
X335873Y630157D01*
X336443Y630385D01*
X337018Y630599D01*
X337598Y630798D01*
X338183Y630984D01*
X338772Y631154D01*
X339365Y631311D01*
X339962Y631453D01*
X340563Y631580D01*
X341166Y631692D01*
X341772Y631789D01*
X342380Y631872D01*
X342990Y631940D01*
X343601Y631992D01*
X344213Y632030D01*
X344826Y632052D01*
X345440Y632060D01*
X346054Y632052D01*
X346667Y632030D01*
X347279Y631992D01*
X347890Y631940D01*
X348500Y631872D01*
X349108Y631789D01*
X349714Y631692D01*
X350317Y631580D01*
X350918Y631453D01*
X351515Y631311D01*
X352108Y631154D01*
X352697Y630984D01*
X353282Y630798D01*
X353862Y630599D01*
X354437Y630385D01*
X355007Y630157D01*
X355571Y629915D01*
X356129Y629660D01*
X356680Y629391D01*
X357225Y629108D01*
X357762Y628812D01*
X358293Y628503D01*
X358815Y628181D01*
X359329Y627847D01*
X359835Y627500D01*
X360332Y627140D01*
X360821Y626769D01*
X361300Y626385D01*
X361769Y625990D01*
X362229Y625584D01*
X362679Y625166D01*
X363118Y624738D01*
X363546Y624299D01*
X363964Y623849D01*
X364370Y623389D01*
X364765Y622920D01*
X365149Y622441D01*
X365520Y621952D01*
X365880Y621455D01*
X366227Y620949D01*
X366561Y620435D01*
X366883Y619913D01*
X367192Y619382D01*
X367488Y618845D01*
X367771Y618300D01*
X368040Y617749D01*
X368295Y617191D01*
X368537Y616627D01*
X368765Y616057D01*
X368979Y615482D01*
X369178Y614902D01*
X369364Y614317D01*
X369534Y613728D01*
X369691Y613135D01*
X369833Y612538D01*
X369960Y611937D01*
X370072Y611334D01*
X370169Y610728D01*
X370252Y610120D01*
X370320Y609510D01*
X370372Y608899D01*
X370410Y608287D01*
X370432Y607674D01*
X370440Y607060D01*
X370432Y606446D01*
X370410Y605833D01*
X370372Y605221D01*
X370320Y604610D01*
X370252Y604000D01*
X370169Y603392D01*
X370072Y602786D01*
X369960Y602183D01*
X369833Y601582D01*
X369691Y600985D01*
X369534Y600392D01*
X369364Y599803D01*
X369178Y599218D01*
X368979Y598638D01*
X368765Y598063D01*
X368537Y597493D01*
X368295Y596929D01*
X368040Y596371D01*
X367771Y595820D01*
X367488Y595275D01*
X367192Y594738D01*
X366883Y594207D01*
X366561Y593685D01*
X366227Y593171D01*
X365880Y592665D01*
X365520Y592168D01*
X365149Y591679D01*
X364765Y591200D01*
X364370Y590731D01*
X363964Y590271D01*
X363546Y589821D01*
X363118Y589382D01*
X362679Y588954D01*
X362229Y588536D01*
X361769Y588130D01*
X361300Y587735D01*
X360821Y587351D01*
X360332Y586980D01*
X359835Y586620D01*
X359329Y586273D01*
X358815Y585939D01*
X358293Y585617D01*
X357762Y585308D01*
X357225Y585012D01*
X356680Y584729D01*
X356129Y584460D01*
X355571Y584205D01*
X355007Y583963D01*
X354437Y583735D01*
X353862Y583521D01*
X353282Y583322D01*
X352697Y583136D01*
X352108Y582966D01*
X351515Y582809D01*
X350918Y582667D01*
X350317Y582540D01*
X349714Y582428D01*
X349108Y582331D01*
X348500Y582248D01*
X347890Y582180D01*
X347279Y582128D01*
X346667Y582090D01*
X346054Y582068D01*
X345440Y582060D01*
X344826Y582068D01*
X344213Y582090D01*
X343601Y582128D01*
X342990Y582180D01*
X342380Y582248D01*
X341772Y582331D01*
X341166Y582428D01*
X340563Y582540D01*
X339962Y582667D01*
X339365Y582809D01*
X338772Y582966D01*
X338183Y583136D01*
X337598Y583322D01*
X337018Y583521D01*
X336443Y583735D01*
X335873Y583963D01*
X335309Y584205D01*
X334751Y584460D01*
X334200Y584729D01*
X333655Y585012D01*
X333118Y585308D01*
X332587Y585617D01*
X332065Y585939D01*
X331551Y586273D01*
X331045Y586620D01*
X330548Y586980D01*
X330059Y587351D01*
X329580Y587735D01*
X329111Y588130D01*
X328651Y588536D01*
X328201Y588954D01*
X327762Y589382D01*
X327334Y589821D01*
X326916Y590271D01*
X326510Y590731D01*
X326115Y591200D01*
X325731Y591679D01*
X325360Y592168D01*
X325000Y592665D01*
X324653Y593171D01*
X324319Y593685D01*
X323997Y594207D01*
X323688Y594738D01*
X323392Y595275D01*
X323109Y595820D01*
X322840Y596371D01*
X322585Y596929D01*
X322343Y597493D01*
X322115Y598063D01*
X321901Y598638D01*
X321702Y599218D01*
X321516Y599803D01*
X321346Y600392D01*
X321189Y600985D01*
X321047Y601582D01*
X320920Y602183D01*
X320808Y602786D01*
X320711Y603392D01*
X320628Y604000D01*
X320560Y604610D01*
X320508Y605221D01*
X320470Y605833D01*
X320448Y606446D01*
X320440Y607060D01*
D11*
X0Y0D02*
X686000Y0D01*
X686000Y120000D01*
X636000Y127620D01*
X636000Y300000D01*
X685800Y300000D01*
X686000Y650000D01*
X0Y650000D01*
X0Y300000D01*
X30000Y300000D01*
X30000Y127620D01*
X0Y120000D01*
X0Y0D01*
X370440Y606359D02*
X370361Y604958D01*
X370204Y603564D01*
X369969Y602181D01*
X369657Y600813D01*
X369269Y599465D01*
X368805Y598141D01*
X368269Y596845D01*
X367660Y595581D01*
X366981Y594353D01*
X366235Y593165D01*
X365423Y592021D01*
X364548Y590924D01*
X363614Y589878D01*
X362622Y588886D01*
X361576Y587952D01*
X360479Y587077D01*
X359335Y586265D01*
X358147Y585519D01*
X356919Y584840D01*
X355655Y584231D01*
X354359Y583695D01*
X353035Y583231D01*
X351687Y582843D01*
X350319Y582531D01*
X348936Y582296D01*
X347542Y582139D01*
X346141Y582060D01*
X344739Y582060D01*
X343338Y582139D01*
X341944Y582296D01*
X340561Y582531D01*
X339193Y582843D01*
X337845Y583231D01*
X336521Y583695D01*
X335225Y584231D01*
X333961Y584840D01*
X332733Y585519D01*
X331545Y586265D01*
X330401Y587077D01*
X329304Y587952D01*
X328258Y588886D01*
X327266Y589878D01*
X326332Y590924D01*
X325457Y592021D01*
X324645Y593165D01*
X323899Y594353D01*
X323220Y595581D01*
X322611Y596845D01*
X322075Y598141D01*
X321611Y599465D01*
X321223Y600813D01*
X320911Y602181D01*
X320676Y603564D01*
X320519Y604958D01*
X320440Y606359D01*
X320440Y607761D01*
X320519Y609162D01*
X320676Y610556D01*
X320911Y611939D01*
X321223Y613307D01*
X321611Y614655D01*
X322075Y615979D01*
X322611Y617275D01*
X323220Y618539D01*
X323899Y619767D01*
X324645Y620955D01*
X325457Y622099D01*
X326332Y623196D01*
X327266Y624242D01*
X328258Y625234D01*
X329304Y626168D01*
X330401Y627043D01*
X331545Y627855D01*
X332733Y628601D01*
X333961Y629280D01*
X335225Y629889D01*
X336521Y630425D01*
X337845Y630889D01*
X339193Y631277D01*
X340561Y631589D01*
X341944Y631824D01*
X343338Y631981D01*
X344739Y632060D01*
X346141Y632060D01*
X347542Y631981D01*
X348936Y631824D01*
X350319Y631589D01*
X351687Y631277D01*
X353035Y630889D01*
X354359Y630425D01*
X355655Y629889D01*
X356919Y629280D01*
X358147Y628601D01*
X359335Y627855D01*
X360479Y627043D01*
X361576Y626168D01*
X362622Y625234D01*
X363614Y624242D01*
X364548Y623196D01*
X365423Y622099D01*
X366235Y620955D01*
X366981Y619767D01*
X367660Y618539D01*
X368269Y617275D01*
X368805Y615979D01*
X369269Y614655D01*
X369657Y613307D01*
X369969Y611939D01*
X370204Y610556D01*
X370361Y609162D01*
X370440Y607761D01*
X370440Y606359D01*
M02*
