G04 EAGLE Gerber RS-274X export*
G75*
%MOMM*%
%FSLAX34Y34*%
%LPD*%
%INSoldermask Top*%
%IPPOS*%
%AMOC8*
5,1,8,0,0,1.08239X$1,22.5*%
G01*
%ADD10C,5.127000*%
%ADD11P,1.787026X8X22.500000*%
%ADD12C,1.346200*%
%ADD13P,1.457113X8X22.500000*%
%ADD14R,1.527000X1.727000*%
%ADD15R,1.627000X1.427000*%
%ADD16R,1.427000X1.627000*%
%ADD17R,1.627000X1.727000*%
%ADD18C,1.346200*%
%ADD19C,1.651000*%
%ADD20C,1.177000*%
%ADD21C,0.652000*%


D10*
X345440Y607060D03*
D11*
X520700Y88900D03*
X495300Y88900D03*
X469900Y88900D03*
X444500Y88900D03*
X419100Y88900D03*
X393700Y88900D03*
X368300Y88900D03*
X342900Y88900D03*
X317500Y88900D03*
X292100Y88900D03*
X266700Y88900D03*
X241300Y88900D03*
X215900Y88900D03*
X190500Y88900D03*
X165100Y88900D03*
X139700Y88900D03*
X114300Y88900D03*
X88900Y88900D03*
X63500Y88900D03*
X38100Y88900D03*
X38100Y114300D03*
X63500Y114300D03*
X88900Y114300D03*
X114300Y114300D03*
X139700Y114300D03*
X165100Y114300D03*
X190500Y114300D03*
X215900Y114300D03*
X241300Y114300D03*
X266700Y114300D03*
X292100Y114300D03*
X317500Y114300D03*
X342900Y114300D03*
X368300Y114300D03*
X393700Y114300D03*
X419100Y114300D03*
X444500Y114300D03*
X469900Y114300D03*
X495300Y114300D03*
X520700Y114300D03*
X647700Y88900D03*
X622300Y88900D03*
X596900Y88900D03*
X571500Y88900D03*
X546100Y88900D03*
X546100Y114300D03*
X571500Y114300D03*
X596900Y114300D03*
X622300Y114300D03*
X647700Y114300D03*
D12*
X431800Y551180D03*
D13*
X431800Y525780D03*
X406400Y551180D03*
X406400Y525780D03*
X381000Y551180D03*
X381000Y525780D03*
X355600Y551180D03*
X355600Y525780D03*
X330200Y551180D03*
X304800Y525780D03*
X330200Y525780D03*
X304800Y500380D03*
X330200Y500380D03*
X304800Y474980D03*
X330200Y474980D03*
X304800Y449580D03*
X330200Y449580D03*
X304800Y424180D03*
X330200Y424180D03*
X304800Y398780D03*
X330200Y398780D03*
X304800Y373380D03*
X330200Y373380D03*
X304800Y347980D03*
X330200Y347980D03*
X304800Y322580D03*
X330200Y297180D03*
X330200Y322580D03*
X355600Y297180D03*
X355600Y322580D03*
X381000Y297180D03*
X381000Y322580D03*
X406400Y297180D03*
X406400Y322580D03*
X431800Y297180D03*
X431800Y322580D03*
X457200Y297180D03*
X457200Y322580D03*
X482600Y297180D03*
X482600Y322580D03*
X508000Y297180D03*
X508000Y322580D03*
X533400Y297180D03*
X558800Y322580D03*
X533400Y322580D03*
X558800Y347980D03*
X533400Y347980D03*
X558800Y373380D03*
X533400Y373380D03*
X558800Y398780D03*
X533400Y398780D03*
X558800Y424180D03*
X533400Y424180D03*
X558800Y449580D03*
X533400Y449580D03*
X558800Y474980D03*
X533400Y474980D03*
X558800Y500380D03*
X533400Y500380D03*
X558800Y525780D03*
X533400Y551180D03*
X533400Y525780D03*
X508000Y551180D03*
X508000Y525780D03*
X482600Y551180D03*
X482600Y525780D03*
X457200Y551180D03*
X457200Y525780D03*
D14*
X45720Y137640D03*
X45720Y167640D03*
D15*
X256540Y520040D03*
X256540Y501040D03*
X259080Y302920D03*
X259080Y321920D03*
X601980Y296520D03*
X601980Y277520D03*
X604520Y420980D03*
X604520Y401980D03*
D16*
X534060Y599440D03*
X553060Y599440D03*
D15*
X175260Y573380D03*
X175260Y554380D03*
X175260Y517500D03*
X175260Y498500D03*
D17*
X82600Y563980D03*
X82600Y512980D03*
X120600Y512980D03*
X120600Y563980D03*
D18*
X69596Y576580D02*
X57404Y576580D01*
X57404Y551180D02*
X69596Y551180D01*
X69596Y474980D02*
X57404Y474980D01*
X57404Y449580D02*
X69596Y449580D01*
X69596Y525780D02*
X57404Y525780D01*
X57404Y500380D02*
X69596Y500380D01*
X69596Y424180D02*
X57404Y424180D01*
X133604Y424180D02*
X145796Y424180D01*
X145796Y449580D02*
X133604Y449580D01*
X133604Y474980D02*
X145796Y474980D01*
X145796Y500380D02*
X133604Y500380D01*
X133604Y525780D02*
X145796Y525780D01*
X145796Y551180D02*
X133604Y551180D01*
X133604Y576580D02*
X145796Y576580D01*
D19*
X200660Y513080D02*
X215900Y513080D01*
X215900Y487680D02*
X200660Y487680D01*
X200660Y462280D02*
X215900Y462280D01*
D20*
X226060Y68580D03*
X254000Y68580D03*
D21*
X259080Y284480D03*
X581660Y297180D03*
X337820Y73660D03*
X480060Y337820D03*
X63500Y335280D03*
X88900Y347980D03*
X114300Y360680D03*
X139700Y373380D03*
X327660Y43180D03*
X523240Y142240D03*
X490220Y332740D03*
X497840Y251460D03*
X548640Y251460D03*
X469900Y358140D03*
X490220Y259080D03*
X541020Y259080D03*
X467360Y347980D03*
X452120Y363220D03*
X436880Y373380D03*
X421640Y386080D03*
X368300Y248920D03*
X279400Y38100D03*
X304800Y50800D03*
X203200Y55880D03*
X342900Y137160D03*
X485140Y513080D03*
X447040Y508000D03*
X441960Y500380D03*
X431800Y487680D03*
X426720Y474980D03*
X416560Y464820D03*
X406400Y449580D03*
X396240Y436880D03*
M02*
